{
  "accessors": [
    {
      "bufferView": 2,
      "componentType": 5126,
      "count": 331,
      "max": [
        -0.1551000028848648,
        0.15399999916553497,
        0.15690000355243683
      ],
      "min": [
        -0.47540000081062317,
        -0.16019999980926514,
        -0.15719999372959137
      ],
      "type": "VEC3"
    },
    {
      "bufferView": 2,
      "byteOffset": 3972,
      "componentType": 5126,
      "count": 331,
      "max": [
        0.9999368786811829,
        1.0,
        1.0
      ],
      "min": [
        -0.99980628490448,
        -0.9999443292617798,
        -1.0
      ],
      "type": "VEC3"
    },
    {
      "bufferView": 1,
      "componentType": 5126,
      "count": 331,
      "max": [
        0.9419000148773193,
        0.864300012588501
      ],
      "min": [
        0.18359999358654022,
        0.11769998073577881
      ],
      "type": "VEC2"
    },
    {
      "bufferView": 0,
      "componentType": 5125,
      "count": 1047,
      "type": "SCALAR"
    },
    {
      "bufferView": 2,
      "byteOffset": 7944,
      "componentType": 5126,
      "count": 1030,
      "max": [
        0.004100000020116568,
        0.2996000051498413,
        0.2996000051498413
      ],
      "min": [
        -0.3287000060081482,
        -0.2996000051498413,
        -0.2996000051498413
      ],
      "type": "VEC3"
    },
    {
      "bufferView": 2,
      "byteOffset": 20304,
      "componentType": 5126,
      "count": 1030,
      "max": [
        0.9998457431793213,
        1.0,
        1.0
      ],
      "min": [
        -0.9998438954353333,
        -1.0,
        -1.0
      ],
      "type": "VEC3"
    },
    {
      "bufferView": 1,
      "byteOffset": 2648,
      "componentType": 5126,
      "count": 1030,
      "max": [
        0.9970999956130981,
        0.9976000189781189
      ],
      "min": [
        0.002400000113993883,
        0.0029000043869018555
      ],
      "type": "VEC2"
    },
    {
      "bufferView": 0,
      "byteOffset": 4188,
      "componentType": 5125,
      "count": 4752,
      "type": "SCALAR"
    },
    {
      "bufferView": 2,
      "byteOffset": 32664,
      "componentType": 5126,
      "count": 2582,
      "max": [
        -0.003599999938160181,
        0.1589999943971634,
        0.1589999943971634
      ],
      "min": [
        -0.4000999927520752,
        -0.1589999943971634,
        -0.1589999943971634
      ],
      "type": "VEC3"
    },
    {
      "bufferView": 2,
      "byteOffset": 63648,
      "componentType": 5126,
      "count": 2582,
      "max": [
        1.0,
        1.0,
        1.0
      ],
      "min": [
        -1.0,
        -1.0,
        -1.0
      ],
      "type": "VEC3"
    },
    {
      "bufferView": 1,
      "byteOffset": 10888,
      "componentType": 5126,
      "count": 2582,
      "max": [
        0.9926999807357788,
        0.9932000041007996
      ],
      "min": [
        0.2061000019311905,
        0.007300019264221191
      ],
      "type": "VEC2"
    },
    {
      "bufferView": 0,
      "byteOffset": 23196,
      "componentType": 5125,
      "count": 9219,
      "type": "SCALAR"
    },
    {
      "bufferView": 2,
      "byteOffset": 94632,
      "componentType": 5126,
      "count": 18,
      "max": [
        -0.3727000057697296,
        0.07020000368356705,
        -0.04050000011920929
      ],
      "min": [
        -0.4562999904155731,
        0.06809999793767929,
        -0.12150000035762787
      ],
      "type": "VEC3"
    },
    {
      "bufferView": 2,
      "byteOffset": 94848,
      "componentType": 5126,
      "count": 18,
      "max": [
        0.015092935413122177,
        0.9997448325157166,
        0.05319773405790329
      ],
      "min": [
        -0.015390916727483273,
        0.9985406994819641,
        0.016810817644000053
      ],
      "type": "VEC3"
    },
    {
      "bufferView": 1,
      "byteOffset": 31544,
      "componentType": 5126,
      "count": 18,
      "max": [
        0.625,
        0.9785000085830688
      ],
      "min": [
        0.6079000234603882,
        0.9613999724388123
      ],
      "type": "VEC2"
    },
    {
      "bufferView": 0,
      "byteOffset": 60072,
      "componentType": 5125,
      "count": 24,
      "type": "SCALAR"
    },
    {
      "bufferView": 2,
      "byteOffset": 95064,
      "componentType": 5126,
      "count": 1030,
      "max": [
        0.00430000014603138,
        0.29989999532699585,
        0.29989999532699585
      ],
      "min": [
        -0.4059999883174896,
        -0.29989999532699585,
        -0.29989999532699585
      ],
      "type": "VEC3"
    },
    {
      "bufferView": 2,
      "byteOffset": 107424,
      "componentType": 5126,
      "count": 1030,
      "max": [
        0.9989483952522278,
        1.0,
        1.0
      ],
      "min": [
        -0.9989483952522278,
        -1.0,
        -1.0
      ],
      "type": "VEC3"
    },
    {
      "bufferView": 1,
      "byteOffset": 31688,
      "componentType": 5126,
      "count": 1030,
      "max": [
        0.9965999722480774,
        0.9970999956130981
      ],
      "min": [
        0.002899999963119626,
        0.0034000277519226074
      ],
      "type": "VEC2"
    },
    {
      "bufferView": 0,
      "byteOffset": 60168,
      "componentType": 5125,
      "count": 4752,
      "type": "SCALAR"
    },
    {
      "bufferView": 2,
      "byteOffset": 119784,
      "componentType": 5126,
      "count": 2985,
      "max": [
        -0.0007999999797903001,
        0.1598999947309494,
        0.1598999947309494
      ],
      "min": [
        -0.32280001044273376,
        -0.1598999947309494,
        -0.1598999947309494
      ],
      "type": "VEC3"
    },
    {
      "bufferView": 2,
      "byteOffset": 155604,
      "componentType": 5126,
      "count": 2985,
      "max": [
        1.0,
        1.0,
        1.0
      ],
      "min": [
        -1.0,
        -1.0,
        -1.0
      ],
      "type": "VEC3"
    },
    {
      "bufferView": 1,
      "byteOffset": 39928,
      "componentType": 5126,
      "count": 2985,
      "max": [
        0.9937000274658203,
        0.9970999956130981
      ],
      "min": [
        0.007799999788403511,
        0.008800029754638672
      ],
      "type": "VEC2"
    },
    {
      "bufferView": 0,
      "byteOffset": 79176,
      "componentType": 5125,
      "count": 9030,
      "type": "SCALAR"
    },
    {
      "bufferView": 2,
      "byteOffset": 191424,
      "componentType": 5126,
      "count": 10,
      "max": [
        0.04039999842643738,
        -2.6161999702453613,
        -0.3621000051498413
      ],
      "min": [
        -0.04039999842643738,
        -2.618299961090088,
        -0.46650001406669617
      ],
      "type": "VEC3"
    },
    {
      "bufferView": 2,
      "byteOffset": 191544,
      "componentType": 5126,
      "count": 10,
      "max": [
        0.011014663614332676,
        -0.9998008608818054,
        0.011476424522697926
      ],
      "min": [
        -0.010990954004228115,
        -0.9999551177024841,
        -0.019171379506587982
      ],
      "type": "VEC3"
    },
    {
      "bufferView": 1,
      "byteOffset": 63808,
      "componentType": 5126,
      "count": 10,
      "max": [
        0.4916999936103821,
        0.6327999830245972
      ],
      "min": [
        0.010700000450015068,
        0.011200010776519775
      ],
      "type": "VEC2"
    },
    {
      "bufferView": 0,
      "byteOffset": 115296,
      "componentType": 5125,
      "count": 24,
      "type": "SCALAR"
    },
    {
      "bufferView": 2,
      "byteOffset": 191664,
      "componentType": 5126,
      "count": 16,
      "max": [
        -0.2409999966621399,
        0.5008999705314636,
        -0.6050000190734863
      ],
      "min": [
        -0.5184000134468079,
        0.2743000090122223,
        -0.6344000101089478
      ],
      "type": "VEC3"
    },
    {
      "bufferView": 2,
      "byteOffset": 191856,
      "componentType": 5126,
      "count": 16,
      "max": [
        0.8307903409004211,
        0.4255136549472809,
        0.951878547668457
      ],
      "min": [
        0.007103106938302517,
        -0.9625320434570313,
        0.010010008700191975
      ],
      "type": "VEC3"
    },
    {
      "bufferView": 1,
      "byteOffset": 63888,
      "componentType": 5126,
      "count": 16,
      "max": [
        0.9365000128746033,
        0.8579000234603882
      ],
      "min": [
        0.9365000128746033,
        0.8579000234603882
      ],
      "type": "VEC2"
    },
    {
      "bufferView": 0,
      "byteOffset": 115392,
      "componentType": 5125,
      "count": 36,
      "type": "SCALAR"
    },
    {
      "bufferView": 2,
      "byteOffset": 192048,
      "componentType": 5126,
      "count": 1656,
      "max": [
        0.7283999919891357,
        -1.5164999961853027,
        -0.15109999477863312
      ],
      "min": [
        0.03739999979734421,
        -2.1844000816345215,
        -0.49129998683929443
      ],
      "type": "VEC3"
    },
    {
      "bufferView": 2,
      "byteOffset": 211920,
      "componentType": 5126,
      "count": 1656,
      "max": [
        1.0,
        0.9999934434890747,
        0.999941885471344
      ],
      "min": [
        -0.9999966621398926,
        -0.9998514652252197,
        -0.9999555349349976
      ],
      "type": "VEC3"
    },
    {
      "bufferView": 1,
      "byteOffset": 64016,
      "componentType": 5126,
      "count": 1656,
      "max": [
        0.9359999895095825,
        0.8594000339508057
      ],
      "min": [
        0.08839999884366989,
        0.027300000190734863
      ],
      "type": "VEC2"
    },
    {
      "bufferView": 0,
      "byteOffset": 115536,
      "componentType": 5125,
      "count": 4944,
      "type": "SCALAR"
    },
    {
      "bufferView": 2,
      "byteOffset": 231792,
      "componentType": 5126,
      "count": 294,
      "max": [
        -0.12189999967813492,
        1.652400016784668,
        -0.2847000062465668
      ],
      "min": [
        -0.6144999861717224,
        1.2561999559402466,
        -0.6047999858856201
      ],
      "type": "VEC3"
    },
    {
      "bufferView": 2,
      "byteOffset": 235320,
      "componentType": 5126,
      "count": 294,
      "max": [
        0.9388745427131653,
        0.999696671962738,
        0.9957855939865112
      ],
      "min": [
        -0.9992583394050598,
        -0.9990532398223877,
        -0.9974422454833984
      ],
      "type": "VEC3"
    },
    {
      "bufferView": 1,
      "byteOffset": 77264,
      "componentType": 5126,
      "count": 294,
      "max": [
        0.43700000643730164,
        0.5088000297546387
      ],
      "min": [
        0.034699998795986176,
        0.032199978828430176
      ],
      "type": "VEC2"
    },
    {
      "bufferView": 0,
      "byteOffset": 135312,
      "componentType": 5125,
      "count": 933,
      "type": "SCALAR"
    },
    {
      "bufferView": 2,
      "byteOffset": 238848,
      "componentType": 5126,
      "count": 138,
      "max": [
        -0.01889999955892563,
        -1.7408000230789185,
        -0.2912999987602234
      ],
      "min": [
        -0.5357999801635742,
        -2.094099998474121,
        -0.34369999170303345
      ],
      "type": "VEC3"
    },
    {
      "bufferView": 2,
      "byteOffset": 240504,
      "componentType": 5126,
      "count": 138,
      "max": [
        0.9992144107818604,
        0.9988155364990234,
        0.9987541437149048
      ],
      "min": [
        -0.9988466501235962,
        -0.9994609355926514,
        -0.9998903274536133
      ],
      "type": "VEC3"
    },
    {
      "bufferView": 1,
      "byteOffset": 79616,
      "componentType": 5126,
      "count": 138,
      "max": [
        0.4180000126361847,
        0.40380001068115234
      ],
      "min": [
        0.007300000172108412,
        0.038600027561187744
      ],
      "type": "VEC2"
    },
    {
      "bufferView": 0,
      "byteOffset": 139044,
      "componentType": 5125,
      "count": 306,
      "type": "SCALAR"
    },
    {
      "bufferView": 2,
      "byteOffset": 242160,
      "componentType": 5126,
      "count": 2985,
      "max": [
        -0.0007999999797903001,
        0.1598999947309494,
        0.1598999947309494
      ],
      "min": [
        -0.32280001044273376,
        -0.1598999947309494,
        -0.1598999947309494
      ],
      "type": "VEC3"
    },
    {
      "bufferView": 2,
      "byteOffset": 277980,
      "componentType": 5126,
      "count": 2985,
      "max": [
        1.0,
        1.0,
        1.0
      ],
      "min": [
        -1.0,
        -1.0,
        -1.0
      ],
      "type": "VEC3"
    },
    {
      "bufferView": 1,
      "byteOffset": 80720,
      "componentType": 5126,
      "count": 2985,
      "max": [
        0.9937000274658203,
        0.9970999956130981
      ],
      "min": [
        0.007799999788403511,
        0.008800029754638672
      ],
      "type": "VEC2"
    },
    {
      "bufferView": 0,
      "byteOffset": 140268,
      "componentType": 5125,
      "count": 9030,
      "type": "SCALAR"
    },
    {
      "bufferView": 2,
      "byteOffset": 313800,
      "componentType": 5126,
      "count": 1648,
      "max": [
        -0.03739999979734421,
        -1.5164999961853027,
        -0.15109999477863312
      ],
      "min": [
        -0.7283999919891357,
        -2.1844000816345215,
        -0.49129998683929443
      ],
      "type": "VEC3"
    },
    {
      "bufferView": 2,
      "byteOffset": 333576,
      "componentType": 5126,
      "count": 1648,
      "max": [
        0.9999974370002747,
        0.9999935626983643,
        0.999941885471344
      ],
      "min": [
        -1.0,
        -0.9998515248298645,
        -0.9999554753303528
      ],
      "type": "VEC3"
    },
    {
      "bufferView": 1,
      "byteOffset": 104600,
      "componentType": 5126,
      "count": 1648,
      "max": [
        0.9359999895095825,
        0.8594000339508057
      ],
      "min": [
        0.08839999884366989,
        0.027300000190734863
      ],
      "type": "VEC2"
    },
    {
      "bufferView": 0,
      "byteOffset": 176388,
      "componentType": 5125,
      "count": 4944,
      "type": "SCALAR"
    },
    {
      "bufferView": 2,
      "byteOffset": 353352,
      "componentType": 5126,
      "count": 1030,
      "max": [
        0.00430000014603138,
        0.29989999532699585,
        0.29989999532699585
      ],
      "min": [
        -0.4059999883174896,
        -0.29989999532699585,
        -0.29989999532699585
      ],
      "type": "VEC3"
    },
    {
      "bufferView": 2,
      "byteOffset": 365712,
      "componentType": 5126,
      "count": 1030,
      "max": [
        0.9989483952522278,
        1.0,
        1.0
      ],
      "min": [
        -0.9989483952522278,
        -1.0,
        -1.0
      ],
      "type": "VEC3"
    },
    {
      "bufferView": 1,
      "byteOffset": 117784,
      "componentType": 5126,
      "count": 1030,
      "max": [
        0.9965999722480774,
        0.9970999956130981
      ],
      "min": [
        0.002899999963119626,
        0.0034000277519226074
      ],
      "type": "VEC2"
    },
    {
      "bufferView": 0,
      "byteOffset": 196164,
      "componentType": 5125,
      "count": 4752,
      "type": "SCALAR"
    },
    {
      "bufferView": 2,
      "byteOffset": 378072,
      "componentType": 5126,
      "count": 4,
      "max": [
        -0.46709999442100525,
        0.4408999979496002,
        -0.6877999901771545
      ],
      "min": [
        -0.6141999959945679,
        0.3779999911785126,
        -0.7461000084877014
      ],
      "type": "VEC3"
    },
    {
      "bufferView": 2,
      "byteOffset": 378120,
      "componentType": 5126,
      "count": 4,
      "max": [
        0.39547351002693176,
        -0.9183789491653442,
        0.01782631315290928
      ],
      "min": [
        0.3938042223453522,
        -0.9190216064453125,
        0.013446515426039696
      ],
      "type": "VEC3"
    },
    {
      "bufferView": 1,
      "byteOffset": 126024,
      "componentType": 5126,
      "count": 4,
      "max": [
        0.9018999934196472,
        0.864300012588501
      ],
      "min": [
        0.8866999745368958,
        0.8579000234603882
      ],
      "type": "VEC2"
    },
    {
      "bufferView": 0,
      "byteOffset": 215172,
      "componentType": 5125,
      "count": 6,
      "type": "SCALAR"
    },
    {
      "bufferView": 2,
      "byteOffset": 378168,
      "componentType": 5126,
      "count": 18,
      "max": [
        -0.3727000057697296,
        0.07020000368356705,
        -0.04050000011920929
      ],
      "min": [
        -0.4562999904155731,
        0.06809999793767929,
        -0.12150000035762787
      ],
      "type": "VEC3"
    },
    {
      "bufferView": 2,
      "byteOffset": 378384,
      "componentType": 5126,
      "count": 18,
      "max": [
        0.015092935413122177,
        0.9997448325157166,
        0.05319773405790329
      ],
      "min": [
        -0.015390916727483273,
        0.9985406994819641,
        0.016810817644000053
      ],
      "type": "VEC3"
    },
    {
      "bufferView": 1,
      "byteOffset": 126056,
      "componentType": 5126,
      "count": 18,
      "max": [
        0.625,
        0.9785000085830688
      ],
      "min": [
        0.6079000234603882,
        0.9613999724388123
      ],
      "type": "VEC2"
    },
    {
      "bufferView": 0,
      "byteOffset": 215196,
      "componentType": 5125,
      "count": 24,
      "type": "SCALAR"
    },
    {
      "bufferView": 2,
      "byteOffset": 378600,
      "componentType": 5126,
      "count": 432,
      "max": [
        0.5102999806404114,
        -2.26419997215271,
        -0.7868000268936157
      ],
      "min": [
        -0.5102999806404114,
        -2.48009991645813,
        -0.9585999846458435
      ],
      "type": "VEC3"
    },
    {
      "bufferView": 2,
      "byteOffset": 383784,
      "componentType": 5126,
      "count": 432,
      "max": [
        1.0,
        0.9999427795410156,
        0.998773455619812
      ],
      "min": [
        -1.0,
        -0.9974772930145264,
        -0.9997798800468445
      ],
      "type": "VEC3"
    },
    {
      "bufferView": 1,
      "byteOffset": 126200,
      "componentType": 5126,
      "count": 432,
      "max": [
        0.8320000171661377,
        0.9794999957084656
      ],
      "min": [
        0.5741999745368958,
        0.5746999979019165
      ],
      "type": "VEC2"
    },
    {
      "bufferView": 0,
      "byteOffset": 215292,
      "componentType": 5125,
      "count": 690,
      "type": "SCALAR"
    },
    {
      "bufferView": 2,
      "byteOffset": 388968,
      "componentType": 5126,
      "count": 901,
      "max": [
        0.25429999828338623,
        1.1324000358581543,
        -0.21150000393390656
      ],
      "min": [
        -0.25429999828338623,
        -0.1647000014781952,
        -0.6496000289916992
      ],
      "type": "VEC3"
    },
    {
      "bufferView": 2,
      "byteOffset": 399780,
      "componentType": 5126,
      "count": 901,
      "max": [
        1.0,
        0.9998806715011597,
        0.9998230934143066
      ],
      "min": [
        -1.0,
        -0.9999741911888123,
        -0.9999641180038452
      ],
      "type": "VEC3"
    },
    {
      "bufferView": 1,
      "byteOffset": 129656,
      "componentType": 5126,
      "count": 901,
      "max": [
        0.9951000213623047,
        0.9916999936103821
      ],
      "min": [
        0.23340000212192535,
        0.0054000020027160645
      ],
      "type": "VEC2"
    },
    {
      "bufferView": 0,
      "byteOffset": 218052,
      "componentType": 5125,
      "count": 2778,
      "type": "SCALAR"
    },
    {
      "bufferView": 2,
      "byteOffset": 410592,
      "componentType": 5126,
      "count": 196,
      "max": [
        0.5773000121116638,
        0.13729999959468842,
        -0.4178999960422516
      ],
      "min": [
        -0.5773000121116638,
        -2.2283999919891357,
        -0.6029999852180481
      ],
      "type": "VEC3"
    },
    {
      "bufferView": 2,
      "byteOffset": 412944,
      "componentType": 5126,
      "count": 196,
      "max": [
        0.9983031749725342,
        0.903007984161377,
        0.9934844374656677
      ],
      "min": [
        -0.998303234577179,
        -0.9943962097167969,
        -0.9866868853569031
      ],
      "type": "VEC3"
    },
    {
      "bufferView": 1,
      "byteOffset": 136864,
      "componentType": 5126,
      "count": 196,
      "max": [
        0.9175000190734863,
        0.8237000107765198
      ],
      "min": [
        0.739300012588501,
        0.8158999681472778
      ],
      "type": "VEC2"
    },
    {
      "bufferView": 0,
      "byteOffset": 229164,
      "componentType": 5125,
      "count": 555,
      "type": "SCALAR"
    },
    {
      "bufferView": 2,
      "byteOffset": 415296,
      "componentType": 5126,
      "count": 295,
      "max": [
        0.6144999861717224,
        1.652400016784668,
        -0.2847000062465668
      ],
      "min": [
        0.12189999967813492,
        1.2561999559402466,
        -0.6047999858856201
      ],
      "type": "VEC3"
    },
    {
      "bufferView": 2,
      "byteOffset": 418836,
      "componentType": 5126,
      "count": 295,
      "max": [
        0.9992583990097046,
        0.9996975064277649,
        0.9957799315452576
      ],
      "min": [
        -0.9388759732246399,
        -0.9990532398223877,
        -0.9974421858787537
      ],
      "type": "VEC3"
    },
    {
      "bufferView": 1,
      "byteOffset": 138432,
      "componentType": 5126,
      "count": 295,
      "max": [
        0.43700000643730164,
        0.5088000297546387
      ],
      "min": [
        0.034699998795986176,
        0.032199978828430176
      ],
      "type": "VEC2"
    },
    {
      "bufferView": 0,
      "byteOffset": 231384,
      "componentType": 5125,
      "count": 933,
      "type": "SCALAR"
    },
    {
      "bufferView": 2,
      "byteOffset": 422376,
      "componentType": 5126,
      "count": 211,
      "max": [
        0.2937000095844269,
        1.7005000114440918,
        -0.20340000092983246
      ],
      "min": [
        -0.2937000095844269,
        -2.03410005569458,
        -0.9848999977111816
      ],
      "type": "VEC3"
    },
    {
      "bufferView": 2,
      "byteOffset": 424908,
      "componentType": 5126,
      "count": 211,
      "max": [
        0.9984708428382874,
        0.9998777508735657,
        0.9960635900497437
      ],
      "min": [
        -1.0,
        -0.999823272228241,
        -0.9998685717582703
      ],
      "type": "VEC3"
    },
    {
      "bufferView": 1,
      "byteOffset": 140792,
      "componentType": 5126,
      "count": 211,
      "max": [
        0.9262999892234802,
        0.8208000063896179
      ],
      "min": [
        0.9146000146865845,
        0.8154000043869019
      ],
      "type": "VEC2"
    },
    {
      "bufferView": 0,
      "byteOffset": 235116,
      "componentType": 5125,
      "count": 579,
      "type": "SCALAR"
    },
    {
      "bufferView": 2,
      "byteOffset": 427440,
      "componentType": 5126,
      "count": 18,
      "max": [
        0.5121999979019165,
        -2.6828999519348145,
        -0.6880999803543091
      ],
      "min": [
        -0.5121999979019165,
        -2.754199981689453,
        -0.8826000094413757
      ],
      "type": "VEC3"
    },
    {
      "bufferView": 2,
      "byteOffset": 427656,
      "componentType": 5126,
      "count": 18,
      "max": [
        0.00033468299079686403,
        -0.938884437084198,
        0.34423255920410156
      ],
      "min": [
        -0.0002147448540199548,
        -0.9389033317565918,
        0.3441810607910156
      ],
      "type": "VEC3"
    },
    {
      "bufferView": 1,
      "byteOffset": 142480,
      "componentType": 5126,
      "count": 18,
      "max": [
        0.9824000000953674,
        0.9800000190734863
      ],
      "min": [
        0.017100000753998756,
        0.9491999745368958
      ],
      "type": "VEC2"
    },
    {
      "bufferView": 0,
      "byteOffset": 237432,
      "componentType": 5125,
      "count": 42,
      "type": "SCALAR"
    },
    {
      "bufferView": 2,
      "byteOffset": 427872,
      "componentType": 5126,
      "count": 134,
      "max": [
        0.5357999801635742,
        -1.7408000230789185,
        -0.2912999987602234
      ],
      "min": [
        0.01889999955892563,
        -2.094099998474121,
        -0.34369999170303345
      ],
      "type": "VEC3"
    },
    {
      "bufferView": 2,
      "byteOffset": 429480,
      "componentType": 5126,
      "count": 134,
      "max": [
        0.9988466501235962,
        0.9988155364990234,
        0.9987561702728271
      ],
      "min": [
        -0.9992143511772156,
        -0.9994617700576782,
        -0.9998877644538879
      ],
      "type": "VEC3"
    },
    {
      "bufferView": 1,
      "byteOffset": 142624,
      "componentType": 5126,
      "count": 134,
      "max": [
        0.4180000126361847,
        0.40380001068115234
      ],
      "min": [
        0.007300000172108412,
        0.038600027561187744
      ],
      "type": "VEC2"
    },
    {
      "bufferView": 0,
      "byteOffset": 237600,
      "componentType": 5125,
      "count": 306,
      "type": "SCALAR"
    },
    {
      "bufferView": 2,
      "byteOffset": 431088,
      "componentType": 5126,
      "count": 9075,
      "max": [
        0.7792999744415283,
        2.618299961090088,
        -0.10440000146627426
      ],
      "min": [
        -0.7792999744415283,
        -2.03410005569458,
        -1.0197999477386475
      ],
      "type": "VEC3"
    },
    {
      "bufferView": 2,
      "byteOffset": 539988,
      "componentType": 5126,
      "count": 9075,
      "max": [
        1.0,
        0.9999725818634033,
        0.9999843239784241
      ],
      "min": [
        -1.0,
        -0.9999979138374329,
        -1.0
      ],
      "type": "VEC3"
    },
    {
      "bufferView": 1,
      "byteOffset": 143696,
      "componentType": 5126,
      "count": 9075,
      "max": [
        0.9951000213623047,
        0.7056000232696533
      ],
      "min": [
        0.004399999976158142,
        0.0029000043869018555
      ],
      "type": "VEC2"
    },
    {
      "bufferView": 0,
      "byteOffset": 238824,
      "componentType": 5125,
      "count": 32709,
      "type": "SCALAR"
    },
    {
      "bufferView": 2,
      "byteOffset": 648888,
      "componentType": 5126,
      "count": 1143,
      "max": [
        0.29260000586509705,
        2.6194000244140625,
        -0.2011999934911728
      ],
      "min": [
        -0.29260000586509705,
        -0.5195000171661377,
        -1.1272000074386597
      ],
      "type": "VEC3"
    },
    {
      "bufferView": 2,
      "byteOffset": 662604,
      "componentType": 5126,
      "count": 1143,
      "max": [
        1.0,
        0.9998589754104614,
        0.9997465014457703
      ],
      "min": [
        -1.0,
        -0.9999910593032837,
        -0.9998229742050171
      ],
      "type": "VEC3"
    },
    {
      "bufferView": 1,
      "byteOffset": 216296,
      "componentType": 5126,
      "count": 1143,
      "max": [
        0.9384999871253967,
        0.9692000150680542
      ],
      "min": [
        0.02879999950528145,
        0.022899985313415527
      ],
      "type": "VEC2"
    },
    {
      "bufferView": 0,
      "byteOffset": 369660,
      "componentType": 5125,
      "count": 3276,
      "type": "SCALAR"
    },
    {
      "bufferView": 2,
      "byteOffset": 676320,
      "componentType": 5126,
      "count": 16,
      "max": [
        0.5184000134468079,
        0.5008999705314636,
        -0.6050000190734863
      ],
      "min": [
        0.2409999966621399,
        0.2743000090122223,
        -0.6344000101089478
      ],
      "type": "VEC3"
    },
    {
      "bufferView": 2,
      "byteOffset": 676512,
      "componentType": 5126,
      "count": 16,
      "max": [
        -0.0071026417426764965,
        0.4255136549472809,
        0.9518786072731018
      ],
      "min": [
        -0.8307905793190002,
        -0.9625301957130432,
        0.010011443868279457
      ],
      "type": "VEC3"
    },
    {
      "bufferView": 1,
      "byteOffset": 225440,
      "componentType": 5126,
      "count": 16,
      "max": [
        0.9365000128746033,
        0.8579000234603882
      ],
      "min": [
        0.9365000128746033,
        0.8579000234603882
      ],
      "type": "VEC2"
    },
    {
      "bufferView": 0,
      "byteOffset": 382764,
      "componentType": 5125,
      "count": 36,
      "type": "SCALAR"
    },
    {
      "bufferView": 2,
      "byteOffset": 676704,
      "componentType": 5126,
      "count": 2582,
      "max": [
        -0.003599999938160181,
        0.1589999943971634,
        0.1589999943971634
      ],
      "min": [
        -0.4000999927520752,
        -0.1589999943971634,
        -0.1589999943971634
      ],
      "type": "VEC3"
    },
    {
      "bufferView": 2,
      "byteOffset": 707688,
      "componentType": 5126,
      "count": 2582,
      "max": [
        1.0,
        1.0,
        1.0
      ],
      "min": [
        -1.0,
        -1.0,
        -1.0
      ],
      "type": "VEC3"
    },
    {
      "bufferView": 1,
      "byteOffset": 225568,
      "componentType": 5126,
      "count": 2582,
      "max": [
        0.9926999807357788,
        0.9932000041007996
      ],
      "min": [
        0.2061000019311905,
        0.007300019264221191
      ],
      "type": "VEC2"
    },
    {
      "bufferView": 0,
      "byteOffset": 382908,
      "componentType": 5125,
      "count": 9219,
      "type": "SCALAR"
    },
    {
      "bufferView": 2,
      "byteOffset": 738672,
      "componentType": 5126,
      "count": 272,
      "max": [
        -0.11479999870061874,
        1.6687999963760376,
        -0.4424000084400177
      ],
      "min": [
        -0.5992000102996826,
        1.1132999658584595,
        -0.5525000095367432
      ],
      "type": "VEC3"
    },
    {
      "bufferView": 2,
      "byteOffset": 741936,
      "componentType": 5126,
      "count": 272,
      "max": [
        0.9952362179756165,
        0.9993763566017151,
        0.9989123940467834
      ],
      "min": [
        -0.9995034337043762,
        -0.9963679909706116,
        -0.9994972348213196
      ],
      "type": "VEC3"
    },
    {
      "bufferView": 1,
      "byteOffset": 246224,
      "componentType": 5126,
      "count": 272,
      "max": [
        0.9735999703407288,
        0.11430001258850098
      ],
      "min": [
        0.14749999344348907,
        0.021499991416931152
      ],
      "type": "VEC2"
    },
    {
      "bufferView": 0,
      "byteOffset": 419784,
      "componentType": 5125,
      "count": 885,
      "type": "SCALAR"
    },
    {
      "bufferView": 2,
      "byteOffset": 745200,
      "componentType": 5126,
      "count": 3635,
      "max": [
        0.5121999979019165,
        -2.022700071334839,
        -0.2671999931335449
      ],
      "min": [
        -0.5121999979019165,
        -2.754199981689453,
        -0.9682000279426575
      ],
      "type": "VEC3"
    },
    {
      "bufferView": 2,
      "byteOffset": 788820,
      "componentType": 5126,
      "count": 3635,
      "max": [
        1.0,
        0.9998981952667236,
        0.9999997615814209
      ],
      "min": [
        -1.0,
        -0.9999262094497681,
        -0.9999450445175171
      ],
      "type": "VEC3"
    },
    {
      "bufferView": 1,
      "byteOffset": 248400,
      "componentType": 5126,
      "count": 3635,
      "max": [
        0.9916999936103821,
        0.9907000064849854
      ],
      "min": [
        0.4867999851703644,
        0.6176999807357788
      ],
      "type": "VEC2"
    },
    {
      "bufferView": 0,
      "byteOffset": 423324,
      "componentType": 5125,
      "count": 11562,
      "type": "SCALAR"
    },
    {
      "bufferView": 2,
      "byteOffset": 832440,
      "componentType": 5126,
      "count": 497,
      "max": [
        0.09780000150203705,
        -1.7032999992370605,
        -0.4717000126838684
      ],
      "min": [
        -0.09780000150203705,
        -2.228600025177002,
        -0.6047999858856201
      ],
      "type": "VEC3"
    },
    {
      "bufferView": 2,
      "byteOffset": 838404,
      "componentType": 5126,
      "count": 497,
      "max": [
        0.999993085861206,
        0.9942417740821838,
        0.9867459535598755
      ],
      "min": [
        -0.9999943375587463,
        -0.9943469762802124,
        -0.9935154914855957
      ],
      "type": "VEC3"
    },
    {
      "bufferView": 1,
      "byteOffset": 277480,
      "componentType": 5126,
      "count": 497,
      "max": [
        0.9682999849319458,
        0.009299993515014648
      ],
      "min": [
        0.9404000043869019,
        0.0023999810218811035
      ],
      "type": "VEC2"
    },
    {
      "bufferView": 0,
      "byteOffset": 469572,
      "componentType": 5125,
      "count": 1629,
      "type": "SCALAR"
    },
    {
      "bufferView": 2,
      "byteOffset": 844368,
      "componentType": 5126,
      "count": 441,
      "max": [
        0.621999979019165,
        0.5149000287055969,
        -0.6050000190734863
      ],
      "min": [
        0.2409999966621399,
        0.2743000090122223,
        -0.7505999803543091
      ],
      "type": "VEC3"
    },
    {
      "bufferView": 2,
      "byteOffset": 849660,
      "componentType": 5126,
      "count": 441,
      "max": [
        0.9901566505432129,
        0.9984925389289856,
        0.9999855756759644
      ],
      "min": [
        -0.9956995844841003,
        -0.9768663644790649,
        -0.9975794553756714
      ],
      "type": "VEC3"
    },
    {
      "bufferView": 1,
      "byteOffset": 281456,
      "componentType": 5126,
      "count": 441,
      "max": [
        0.37299999594688416,
        0.6347999572753906
      ],
      "min": [
        0.23880000412464142,
        0.5785999894142151
      ],
      "type": "VEC2"
    },
    {
      "bufferView": 0,
      "byteOffset": 476088,
      "componentType": 5125,
      "count": 1449,
      "type": "SCALAR"
    },
    {
      "bufferView": 2,
      "byteOffset": 854952,
      "componentType": 5126,
      "count": 1030,
      "max": [
        0.004100000020116568,
        0.2996000051498413,
        0.2996000051498413
      ],
      "min": [
        -0.3287000060081482,
        -0.2996000051498413,
        -0.2996000051498413
      ],
      "type": "VEC3"
    },
    {
      "bufferView": 2,
      "byteOffset": 867312,
      "componentType": 5126,
      "count": 1030,
      "max": [
        0.9998457431793213,
        1.0,
        1.0
      ],
      "min": [
        -0.9998438954353333,
        -1.0,
        -1.0
      ],
      "type": "VEC3"
    },
    {
      "bufferView": 1,
      "byteOffset": 284984,
      "componentType": 5126,
      "count": 1030,
      "max": [
        0.9970999956130981,
        0.9976000189781189
      ],
      "min": [
        0.002400000113993883,
        0.0029000043869018555
      ],
      "type": "VEC2"
    },
    {
      "bufferView": 0,
      "byteOffset": 481884,
      "componentType": 5125,
      "count": 4752,
      "type": "SCALAR"
    },
    {
      "bufferView": 2,
      "byteOffset": 879672,
      "componentType": 5126,
      "count": 6667,
      "max": [
        0.7806000113487244,
        1.718000054359436,
        -0.03799999877810478
      ],
      "min": [
        -0.7806000113487244,
        -2.620800018310547,
        -0.5019000172615051
      ],
      "type": "VEC3"
    },
    {
      "bufferView": 2,
      "byteOffset": 959676,
      "componentType": 5126,
      "count": 6667,
      "max": [
        1.0,
        0.9998230934143066,
        0.9999829530715942
      ],
      "min": [
        -1.0,
        -0.9999912977218628,
        -0.999978244304657
      ],
      "type": "VEC3"
    },
    {
      "bufferView": 1,
      "byteOffset": 293224,
      "componentType": 5126,
      "count": 6667,
      "max": [
        0.9916999936103821,
        0.9829000234603882
      ],
      "min": [
        0.002400000113993883,
        0.01510000228881836
      ],
      "type": "VEC2"
    },
    {
      "bufferView": 0,
      "byteOffset": 500892,
      "componentType": 5125,
      "count": 19218,
      "type": "SCALAR"
    },
    {
      "bufferView": 2,
      "byteOffset": 1039680,
      "componentType": 5126,
      "count": 331,
      "max": [
        -0.1551000028848648,
        0.15399999916553497,
        0.15690000355243683
      ],
      "min": [
        -0.47540000081062317,
        -0.16019999980926514,
        -0.15719999372959137
      ],
      "type": "VEC3"
    },
    {
      "bufferView": 2,
      "byteOffset": 1043652,
      "componentType": 5126,
      "count": 331,
      "max": [
        0.9999368786811829,
        1.0,
        1.0
      ],
      "min": [
        -0.99980628490448,
        -0.9999443292617798,
        -1.0
      ],
      "type": "VEC3"
    },
    {
      "bufferView": 1,
      "byteOffset": 346560,
      "componentType": 5126,
      "count": 331,
      "max": [
        0.9419000148773193,
        0.864300012588501
      ],
      "min": [
        0.18359999358654022,
        0.11769998073577881
      ],
      "type": "VEC2"
    },
    {
      "bufferView": 0,
      "byteOffset": 577764,
      "componentType": 5125,
      "count": 1047,
      "type": "SCALAR"
    },
    {
      "bufferView": 2,
      "byteOffset": 1047624,
      "componentType": 5126,
      "count": 1629,
      "max": [
        0.11129999905824661,
        0.0478999987244606,
        0.08110000193119049
      ],
      "min": [
        -0.11129999905824661,
        -0.028200000524520874,
        -0.08110000193119049
      ],
      "type": "VEC3"
    },
    {
      "bufferView": 2,
      "byteOffset": 1067172,
      "componentType": 5126,
      "count": 1629,
      "max": [
        1.0,
        1.0,
        1.0
      ],
      "min": [
        -1.0,
        -1.0,
        -1.0
      ],
      "type": "VEC3"
    },
    {
      "bufferView": 1,
      "byteOffset": 349208,
      "componentType": 5126,
      "count": 1629,
      "max": [
        0.9932000041007996,
        0.9564999938011169
      ],
      "min": [
        0.04390000179409981,
        0.03560000658035278
      ],
      "type": "VEC2"
    },
    {
      "bufferView": 0,
      "byteOffset": 581952,
      "componentType": 5125,
      "count": 4320,
      "type": "SCALAR"
    },
    {
      "bufferView": 2,
      "byteOffset": 1086720,
      "componentType": 5126,
      "count": 1762,
      "max": [
        0.7806000113487244,
        0.9847000241279602,
        -0.10360000282526016
      ],
      "min": [
        -0.7806000113487244,
        0.31690001487731934,
        -0.3944000005722046
      ],
      "type": "VEC3"
    },
    {
      "bufferView": 2,
      "byteOffset": 1107864,
      "componentType": 5126,
      "count": 1762,
      "max": [
        1.0,
        0.9994975328445435,
        0.9998412728309631
      ],
      "min": [
        -1.0,
        -0.989159882068634,
        -0.9996883273124695
      ],
      "type": "VEC3"
    },
    {
      "bufferView": 1,
      "byteOffset": 362240,
      "componentType": 5126,
      "count": 1762,
      "max": [
        0.9951000213623047,
        0.9922000169754028
      ],
      "min": [
        0.0038999998942017555,
        0.08499997854232788
      ],
      "type": "VEC2"
    },
    {
      "bufferView": 0,
      "byteOffset": 599232,
      "componentType": 5125,
      "count": 4926,
      "type": "SCALAR"
    },
    {
      "bufferView": 2,
      "byteOffset": 1129008,
      "componentType": 5126,
      "count": 619,
      "max": [
        0.91839998960495,
        2.7544000148773193,
        -0.09269999712705612
      ],
      "min": [
        -0.91839998960495,
        2.045300006866455,
        -0.2937999963760376
      ],
      "type": "VEC3"
    },
    {
      "bufferView": 2,
      "byteOffset": 1136436,
      "componentType": 5126,
      "count": 619,
      "max": [
        1.0,
        0.9996213912963867,
        0.999998152256012
      ],
      "min": [
        -1.0,
        -0.9998538494110107,
        -0.984061062335968
      ],
      "type": "VEC3"
    },
    {
      "bufferView": 1,
      "byteOffset": 376336,
      "componentType": 5126,
      "count": 619,
      "max": [
        0.638700008392334,
        0.2968999743461609
      ],
      "min": [
        0.04149999842047691,
        0.027300000190734863
      ],
      "type": "VEC2"
    },
    {
      "bufferView": 0,
      "byteOffset": 618936,
      "componentType": 5125,
      "count": 1812,
      "type": "SCALAR"
    },
    {
      "bufferView": 2,
      "byteOffset": 1143864,
      "componentType": 5126,
      "count": 240,
      "max": [
        0.6159999966621399,
        1.631100058555603,
        -0.13529999554157257
      ],
      "min": [
        -0.6159999966621399,
        -1.7425999641418457,
        -0.6847000122070313
      ],
      "type": "VEC3"
    },
    {
      "bufferView": 2,
      "byteOffset": 1146744,
      "componentType": 5126,
      "count": 240,
      "max": [
        0.978122353553772,
        0.7295013666152954,
        0.003918678034096956
      ],
      "min": [
        -0.978122353553772,
        -0.2063111811876297,
        -0.9998235702514648
      ],
      "type": "VEC3"
    },
    {
      "bufferView": 1,
      "byteOffset": 381288,
      "componentType": 5126,
      "count": 240,
      "max": [
        0.961899995803833,
        0.9926999807357788
      ],
      "min": [
        -0.0005000000237487257,
        0.021499991416931152
      ],
      "type": "VEC2"
    },
    {
      "bufferView": 0,
      "byteOffset": 626184,
      "componentType": 5125,
      "count": 432,
      "type": "SCALAR"
    },
    {
      "bufferView": 2,
      "byteOffset": 1149624,
      "componentType": 5126,
      "count": 272,
      "max": [
        0.5992000102996826,
        1.6687999963760376,
        -0.4424000084400177
      ],
      "min": [
        0.11479999870061874,
        1.1132999658584595,
        -0.5525000095367432
      ],
      "type": "VEC3"
    },
    {
      "bufferView": 2,
      "byteOffset": 1152888,
      "componentType": 5126,
      "count": 272,
      "max": [
        0.9994924068450928,
        0.9993763566017151,
        0.9989123344421387
      ],
      "min": [
        -0.9952362179756165,
        -0.9963679909706116,
        -0.999495804309845
      ],
      "type": "VEC3"
    },
    {
      "bufferView": 1,
      "byteOffset": 383208,
      "componentType": 5126,
      "count": 272,
      "max": [
        0.9735999703407288,
        0.6913999915122986
      ],
      "min": [
        0.14749999344348907,
        0.10740000009536743
      ],
      "type": "VEC2"
    },
    {
      "bufferView": 0,
      "byteOffset": 627912,
      "componentType": 5125,
      "count": 885,
      "type": "SCALAR"
    },
    {
      "bufferView": 2,
      "byteOffset": 1156152,
      "componentType": 5126,
      "count": 438,
      "max": [
        -0.2409999966621399,
        0.5149000287055969,
        -0.6050000190734863
      ],
      "min": [
        -0.621999979019165,
        0.2743000090122223,
        -0.7505999803543091
      ],
      "type": "VEC3"
    },
    {
      "bufferView": 2,
      "byteOffset": 1161408,
      "componentType": 5126,
      "count": 438,
      "max": [
        0.9956969618797302,
        0.9984956979751587,
        0.9999850988388062
      ],
      "min": [
        -0.9901617169380188,
        -0.9768670201301575,
        -0.9975793361663818
      ],
      "type": "VEC3"
    },
    {
      "bufferView": 1,
      "byteOffset": 385384,
      "componentType": 5126,
      "count": 438,
      "max": [
        0.37299999594688416,
        0.13429999351501465
      ],
      "min": [
        0.23880000412464142,
        0.07810002565383911
      ],
      "type": "VEC2"
    },
    {
      "bufferView": 0,
      "byteOffset": 631452,
      "componentType": 5125,
      "count": 1449,
      "type": "SCALAR"
    },
    {
      "bufferView": 2,
      "byteOffset": 1166664,
      "componentType": 5126,
      "count": 14,
      "max": [
        0.011300000362098217,
        -0.34200000762939453,
        -0.2703999876976013
      ],
      "min": [
        -0.011300000362098217,
        -0.3644999861717224,
        -0.2930000126361847
      ],
      "type": "VEC3"
    },
    {
      "bufferView": 2,
      "byteOffset": 1166832,
      "componentType": 5126,
      "count": 14,
      "max": [
        0.5773503184318542,
        0.5773502588272095,
        0.5773503184318542
      ],
      "min": [
        -0.5773503184318542,
        -0.5773502588272095,
        -0.5773503184318542
      ],
      "type": "VEC3"
    },
    {
      "bufferView": 1,
      "byteOffset": 388888,
      "componentType": 5126,
      "count": 14,
      "max": [
        0.5946999788284302,
        0.5097999572753906
      ],
      "min": [
        0.5859000086784363,
        0.4976000189781189
      ],
      "type": "VEC2"
    },
    {
      "bufferView": 0,
      "byteOffset": 637248,
      "componentType": 5125,
      "count": 36,
      "type": "SCALAR"
    },
    {
      "bufferView": 2,
      "byteOffset": 1167000,
      "componentType": 5126,
      "count": 52,
      "max": [
        0.0008999999845400453,
        0.052299998700618744,
        0.014100000262260437
      ],
      "min": [
        -0.4918000102043152,
        -0.025100000202655792,
        -0.0723000019788742
      ],
      "type": "VEC3"
    },
    {
      "bufferView": 2,
      "byteOffset": 1167624,
      "componentType": 5126,
      "count": 52,
      "max": [
        0.1659206748008728,
        0.9986950159072876,
        0.9882966876029968
      ],
      "min": [
        -0.9899348020553589,
        -0.9918615818023682,
        -0.9918859601020813
      ],
      "type": "VEC3"
    },
    {
      "bufferView": 1,
      "byteOffset": 389000,
      "componentType": 5126,
      "count": 52,
      "max": [
        0.40529999136924744,
        0.3833000063896179
      ],
      "min": [
        0.22310000658035278,
        0.0526999831199646
      ],
      "type": "VEC2"
    },
    {
      "bufferView": 0,
      "byteOffset": 637392,
      "componentType": 5125,
      "count": 120,
      "type": "SCALAR"
    },
    {
      "bufferView": 2,
      "byteOffset": 1168248,
      "componentType": 5126,
      "count": 4,
      "max": [
        0.6141999959945679,
        0.4408999979496002,
        -0.6877999901771545
      ],
      "min": [
        0.46709999442100525,
        0.3779999911785126,
        -0.7461000084877014
      ],
      "type": "VEC3"
    },
    {
      "bufferView": 2,
      "byteOffset": 1168296,
      "componentType": 5126,
      "count": 4,
      "max": [
        -0.3937719464302063,
        -0.9183734059333801,
        0.01801532506942749
      ],
      "min": [
        -0.3954879939556122,
        -0.9190316200256348,
        0.013401102274656296
      ],
      "type": "VEC3"
    },
    {
      "bufferView": 1,
      "byteOffset": 389416,
      "componentType": 5126,
      "count": 4,
      "max": [
        0.9018999934196472,
        0.864300012588501
      ],
      "min": [
        0.8866999745368958,
        0.8579000234603882
      ],
      "type": "VEC2"
    },
    {
      "bufferView": 0,
      "byteOffset": 637872,
      "componentType": 5125,
      "count": 6,
      "type": "SCALAR"
    },
    {
      "bufferView": 2,
      "byteOffset": 1168344,
      "componentType": 5126,
      "count": 14,
      "max": [
        0.011300000362098217,
        -0.34200000762939453,
        -0.2703999876976013
      ],
      "min": [
        -0.011300000362098217,
        -0.3644999861717224,
        -0.2930000126361847
      ],
      "type": "VEC3"
    },
    {
      "bufferView": 2,
      "byteOffset": 1168512,
      "componentType": 5126,
      "count": 14,
      "max": [
        0.5773503184318542,
        0.5773502588272095,
        0.5773503184318542
      ],
      "min": [
        -0.5773503184318542,
        -0.5773502588272095,
        -0.5773503184318542
      ],
      "type": "VEC3"
    },
    {
      "bufferView": 1,
      "byteOffset": 389448,
      "componentType": 5126,
      "count": 14,
      "max": [
        0.5946999788284302,
        0.5097999572753906
      ],
      "min": [
        0.5859000086784363,
        0.4976000189781189
      ],
      "type": "VEC2"
    },
    {
      "bufferView": 0,
      "byteOffset": 637896,
      "componentType": 5125,
      "count": 36,
      "type": "SCALAR"
    },
    {
      "bufferView": 2,
      "byteOffset": 1168680,
      "componentType": 5126,
      "count": 1088,
      "max": [
        0.9757000207901001,
        2.7544000148773193,
        -0.09369999915361404
      ],
      "min": [
        -0.9757000207901001,
        2.0190000534057617,
        -0.31859999895095825
      ],
      "type": "VEC3"
    },
    {
      "bufferView": 2,
      "byteOffset": 1181736,
      "componentType": 5126,
      "count": 1088,
      "max": [
        0.999998927116394,
        0.9996376037597656,
        0.9998232126235962
      ],
      "min": [
        -0.9999988675117493,
        -0.9998003244400024,
        -0.9998219609260559
      ],
      "type": "VEC3"
    },
    {
      "bufferView": 1,
      "byteOffset": 389560,
      "componentType": 5126,
      "count": 1088,
      "max": [
        0.48579999804496765,
        0.9937000274658203
      ],
      "min": [
        0.0038999998942017555,
        0.7602999806404114
      ],
      "type": "VEC2"
    },
    {
      "bufferView": 0,
      "byteOffset": 638040,
      "componentType": 5125,
      "count": 3114,
      "type": "SCALAR"
    }
  ],
  "asset": {
    "extras": {
      "author": "OUTPISTON (https://sketchfab.com/outpiston)",
      "license": "CC-BY-NC-SA-4.0 (http://creativecommons.org/licenses/by-nc-sa/4.0/)",
      "source": "https://sketchfab.com/3d-models/2019-f1-toro-rosso-str14-44be044aa57d45f8bbff9fe6827fe5af",
      "title": "2019 F1 Toro Rosso STR14"
    },
    "generator": "Sketchfab-16.85.0",
    "version": "2.0"
  },
  "bufferViews": [
    {
      "buffer": 0,
      "byteLength": 650496,
      "name": "floatBufferViews",
      "target": 34963
    },
    {
      "buffer": 0,
      "byteLength": 398264,
      "byteOffset": 650496,
      "byteStride": 8,
      "name": "floatBufferViews",
      "target": 34962
    },
    {
      "buffer": 0,
      "byteLength": 1194792,
      "byteOffset": 1048760,
      "byteStride": 12,
      "name": "floatBufferViews",
      "target": 34962
    }
  ],
  "buffers": [
    {
      "byteLength": 2243552,
      "uri": "scene.bin"
    }
  ],
  "images": [
    {
      "uri": "textures/2019_f1_toro_rosso_str14_misc.etc.png_baseColor.png"
    },
    {
      "uri": "textures/car_tyre_tread.etc.png_baseColor.png"
    },
    {
      "uri": "textures/2019_f1_toro_rosso_str14_wheel.etc.png_baseColor.png"
    },
    {
      "uri": "textures/car_chassis.etc.png_baseColor.png"
    },
    {
      "uri": "textures/2019_f1_toro_rosso_str14_lights.etc.png_baseColor.png"
    },
    {
      "uri": "textures/2019_f1_toro_rosso_str14_cab.etc.png_baseColor.png"
    },
    {
      "uri": "textures/2019_f1_toro_rosso_str14_ext_10.etc.png_baseColor.png"
    },
    {
      "uri": "textures/2019_f1_toro_rosso_str14_badges.etc.png_baseColor.png"
    }
  ],
  "materials": [
    {
      "name": "2019_f1_toro_rosso_str14_misc.etc.png",
      "pbrMetallicRoughness": {
        "baseColorTexture": {
          "index": 0
        },
        "metallicFactor": 0.5,
        "roughnessFactor": 0.5
      }
    },
    {
      "name": "car_tyre_tread.etc.png",
      "pbrMetallicRoughness": {
        "baseColorTexture": {
          "index": 1
        },
        "metallicFactor": 0.5,
        "roughnessFactor": 0.5
      }
    },
    {
      "name": "2019_f1_toro_rosso_str14_wheel.etc.png",
      "pbrMetallicRoughness": {
        "baseColorTexture": {
          "index": 2
        },
        "metallicFactor": 0.5,
        "roughnessFactor": 0.5
      }
    },
    {
      "name": "car_chassis.etc.png",
      "pbrMetallicRoughness": {
        "baseColorTexture": {
          "index": 3
        },
        "metallicFactor": 0.5,
        "roughnessFactor": 0.5
      }
    },
    {
      "name": "2019_f1_toro_rosso_str14_lights.etc.png",
      "pbrMetallicRoughness": {
        "baseColorTexture": {
          "index": 4
        },
        "metallicFactor": 0.0,
        "roughnessFactor": 0.0
      }
    },
    {
      "name": "2019_f1_toro_rosso_str14_cab.etc.png",
      "pbrMetallicRoughness": {
        "baseColorTexture": {
          "index": 5
        },
        "metallicFactor": 0.5,
        "roughnessFactor": 0.5
      }
    },
    {
      "name": "2019_f1_toro_rosso_str14_ext_10.etc.png",
      "pbrMetallicRoughness": {
        "baseColorTexture": {
          "index": 6
        },
        "metallicFactor": 0.0,
        "roughnessFactor": 0.0
      }
    },
    {
      "name": "2019_f1_toro_rosso_str14_badges.etc.png",
      "pbrMetallicRoughness": {
        "baseColorTexture": {
          "index": 7
        },
        "metallicFactor": 0.5,
        "roughnessFactor": 0.5
      }
    }
  ],
  "meshes": [
    {
      "name": "Object_0",
      "primitives": [
        {
          "attributes": {
            "NORMAL": 1,
            "POSITION": 0,
            "TEXCOORD_0": 2
          },
          "indices": 3,
          "material": 0,
          "mode": 4
        }
      ]
    },
    {
      "name": "Object_1",
      "primitives": [
        {
          "attributes": {
            "NORMAL": 5,
            "POSITION": 4,
            "TEXCOORD_0": 6
          },
          "indices": 7,
          "material": 1,
          "mode": 4
        }
      ]
    },
    {
      "name": "Object_2",
      "primitives": [
        {
          "attributes": {
            "NORMAL": 9,
            "POSITION": 8,
            "TEXCOORD_0": 10
          },
          "indices": 11,
          "material": 2,
          "mode": 4
        }
      ]
    },
    {
      "name": "Object_3",
      "primitives": [
        {
          "attributes": {
            "NORMAL": 13,
            "POSITION": 12,
            "TEXCOORD_0": 14
          },
          "indices": 15,
          "material": 3,
          "mode": 4
        }
      ]
    },
    {
      "name": "Object_4",
      "primitives": [
        {
          "attributes": {
            "NORMAL": 17,
            "POSITION": 16,
            "TEXCOORD_0": 18
          },
          "indices": 19,
          "material": 1,
          "mode": 4
        }
      ]
    },
    {
      "name": "Object_5",
      "primitives": [
        {
          "attributes": {
            "NORMAL": 21,
            "POSITION": 20,
            "TEXCOORD_0": 22
          },
          "indices": 23,
          "material": 2,
          "mode": 4
        }
      ]
    },
    {
      "name": "Object_6",
      "primitives": [
        {
          "attributes": {
            "NORMAL": 25,
            "POSITION": 24,
            "TEXCOORD_0": 26
          },
          "indices": 27,
          "material": 4,
          "mode": 4
        }
      ]
    },
    {
      "name": "Object_7",
      "primitives": [
        {
          "attributes": {
            "NORMAL": 29,
            "POSITION": 28,
            "TEXCOORD_0": 30
          },
          "indices": 31,
          "material": 0,
          "mode": 4
        }
      ]
    },
    {
      "name": "Object_8",
      "primitives": [
        {
          "attributes": {
            "NORMAL": 33,
            "POSITION": 32,
            "TEXCOORD_0": 34
          },
          "indices": 35,
          "material": 0,
          "mode": 4
        }
      ]
    },
    {
      "name": "Object_9",
      "primitives": [
        {
          "attributes": {
            "NORMAL": 37,
            "POSITION": 36,
            "TEXCOORD_0": 38
          },
          "indices": 39,
          "material": 0,
          "mode": 4
        }
      ]
    },
    {
      "name": "Object_10",
      "primitives": [
        {
          "attributes": {
            "NORMAL": 41,
            "POSITION": 40,
            "TEXCOORD_0": 42
          },
          "indices": 43,
          "material": 0,
          "mode": 4
        }
      ]
    },
    {
      "name": "Object_11",
      "primitives": [
        {
          "attributes": {
            "NORMAL": 45,
            "POSITION": 44,
            "TEXCOORD_0": 46
          },
          "indices": 47,
          "material": 2,
          "mode": 4
        }
      ]
    },
    {
      "name": "Object_12",
      "primitives": [
        {
          "attributes": {
            "NORMAL": 49,
            "POSITION": 48,
            "TEXCOORD_0": 50
          },
          "indices": 51,
          "material": 0,
          "mode": 4
        }
      ]
    },
    {
      "name": "Object_13",
      "primitives": [
        {
          "attributes": {
            "NORMAL": 53,
            "POSITION": 52,
            "TEXCOORD_0": 54
          },
          "indices": 55,
          "material": 1,
          "mode": 4
        }
      ]
    },
    {
      "name": "Object_14",
      "primitives": [
        {
          "attributes": {
            "NORMAL": 57,
            "POSITION": 56,
            "TEXCOORD_0": 58
          },
          "indices": 59,
          "material": 0,
          "mode": 4
        }
      ]
    },
    {
      "name": "Object_15",
      "primitives": [
        {
          "attributes": {
            "NORMAL": 61,
            "POSITION": 60,
            "TEXCOORD_0": 62
          },
          "indices": 63,
          "material": 3,
          "mode": 4
        }
      ]
    },
    {
      "name": "Object_16",
      "primitives": [
        {
          "attributes": {
            "NORMAL": 65,
            "POSITION": 64,
            "TEXCOORD_0": 66
          },
          "indices": 67,
          "material": 0,
          "mode": 4
        }
      ]
    },
    {
      "name": "Object_17",
      "primitives": [
        {
          "attributes": {
            "NORMAL": 69,
            "POSITION": 68,
            "TEXCOORD_0": 70
          },
          "indices": 71,
          "material": 5,
          "mode": 4
        }
      ]
    },
    {
      "name": "Object_18",
      "primitives": [
        {
          "attributes": {
            "NORMAL": 73,
            "POSITION": 72,
            "TEXCOORD_0": 74
          },
          "indices": 75,
          "material": 3,
          "mode": 4
        }
      ]
    },
    {
      "name": "Object_19",
      "primitives": [
        {
          "attributes": {
            "NORMAL": 77,
            "POSITION": 76,
            "TEXCOORD_0": 78
          },
          "indices": 79,
          "material": 0,
          "mode": 4
        }
      ]
    },
    {
      "name": "Object_20",
      "primitives": [
        {
          "attributes": {
            "NORMAL": 81,
            "POSITION": 80,
            "TEXCOORD_0": 82
          },
          "indices": 83,
          "material": 3,
          "mode": 4
        }
      ]
    },
    {
      "name": "Object_21",
      "primitives": [
        {
          "attributes": {
            "NORMAL": 85,
            "POSITION": 84,
            "TEXCOORD_0": 86
          },
          "indices": 87,
          "material": 4,
          "mode": 4
        }
      ]
    },
    {
      "name": "Object_22",
      "primitives": [
        {
          "attributes": {
            "NORMAL": 89,
            "POSITION": 88,
            "TEXCOORD_0": 90
          },
          "indices": 91,
          "material": 0,
          "mode": 4
        }
      ]
    },
    {
      "name": "Object_23",
      "primitives": [
        {
          "attributes": {
            "NORMAL": 93,
            "POSITION": 92,
            "TEXCOORD_0": 94
          },
          "indices": 95,
          "material": 6,
          "mode": 4
        }
      ]
    },
    {
      "name": "Object_24",
      "primitives": [
        {
          "attributes": {
            "NORMAL": 97,
            "POSITION": 96,
            "TEXCOORD_0": 98
          },
          "indices": 99,
          "material": 0,
          "mode": 4
        }
      ]
    },
    {
      "name": "Object_25",
      "primitives": [
        {
          "attributes": {
            "NORMAL": 101,
            "POSITION": 100,
            "TEXCOORD_0": 102
          },
          "indices": 103,
          "material": 0,
          "mode": 4
        }
      ]
    },
    {
      "name": "Object_26",
      "primitives": [
        {
          "attributes": {
            "NORMAL": 105,
            "POSITION": 104,
            "TEXCOORD_0": 106
          },
          "indices": 107,
          "material": 2,
          "mode": 4
        }
      ]
    },
    {
      "name": "Object_27",
      "primitives": [
        {
          "attributes": {
            "NORMAL": 109,
            "POSITION": 108,
            "TEXCOORD_0": 110
          },
          "indices": 111,
          "material": 6,
          "mode": 4
        }
      ]
    },
    {
      "name": "Object_28",
      "primitives": [
        {
          "attributes": {
            "NORMAL": 113,
            "POSITION": 112,
            "TEXCOORD_0": 114
          },
          "indices": 115,
          "material": 6,
          "mode": 4
        }
      ]
    },
    {
      "name": "Object_29",
      "primitives": [
        {
          "attributes": {
            "NORMAL": 117,
            "POSITION": 116,
            "TEXCOORD_0": 118
          },
          "indices": 119,
          "material": 6,
          "mode": 4
        }
      ]
    },
    {
      "name": "Object_30",
      "primitives": [
        {
          "attributes": {
            "NORMAL": 121,
            "POSITION": 120,
            "TEXCOORD_0": 122
          },
          "indices": 123,
          "material": 6,
          "mode": 4
        }
      ]
    },
    {
      "name": "Object_31",
      "primitives": [
        {
          "attributes": {
            "NORMAL": 125,
            "POSITION": 124,
            "TEXCOORD_0": 126
          },
          "indices": 127,
          "material": 1,
          "mode": 4
        }
      ]
    },
    {
      "name": "Object_32",
      "primitives": [
        {
          "attributes": {
            "NORMAL": 129,
            "POSITION": 128,
            "TEXCOORD_0": 130
          },
          "indices": 131,
          "material": 0,
          "mode": 4
        }
      ]
    },
    {
      "name": "Object_33",
      "primitives": [
        {
          "attributes": {
            "NORMAL": 133,
            "POSITION": 132,
            "TEXCOORD_0": 134
          },
          "indices": 135,
          "material": 0,
          "mode": 4
        }
      ]
    },
    {
      "name": "Object_34",
      "primitives": [
        {
          "attributes": {
            "NORMAL": 137,
            "POSITION": 136,
            "TEXCOORD_0": 138
          },
          "indices": 139,
          "material": 5,
          "mode": 4
        }
      ]
    },
    {
      "name": "Object_35",
      "primitives": [
        {
          "attributes": {
            "NORMAL": 141,
            "POSITION": 140,
            "TEXCOORD_0": 142
          },
          "indices": 143,
          "material": 6,
          "mode": 4
        }
      ]
    },
    {
      "name": "Object_36",
      "primitives": [
        {
          "attributes": {
            "NORMAL": 145,
            "POSITION": 144,
            "TEXCOORD_0": 146
          },
          "indices": 147,
          "material": 0,
          "mode": 4
        }
      ]
    },
    {
      "name": "Object_37",
      "primitives": [
        {
          "attributes": {
            "NORMAL": 149,
            "POSITION": 148,
            "TEXCOORD_0": 150
          },
          "indices": 151,
          "material": 7,
          "mode": 4
        }
      ]
    },
    {
      "name": "Object_38",
      "primitives": [
        {
          "attributes": {
            "NORMAL": 153,
            "POSITION": 152,
            "TEXCOORD_0": 154
          },
          "indices": 155,
          "material": 6,
          "mode": 4
        }
      ]
    },
    {
      "name": "Object_39",
      "primitives": [
        {
          "attributes": {
            "NORMAL": 157,
            "POSITION": 156,
            "TEXCOORD_0": 158
          },
          "indices": 159,
          "material": 6,
          "mode": 4
        }
      ]
    },
    {
      "name": "Object_40",
      "primitives": [
        {
          "attributes": {
            "NORMAL": 161,
            "POSITION": 160,
            "TEXCOORD_0": 162
          },
          "indices": 163,
          "material": 6,
          "mode": 4
        }
      ]
    },
    {
      "name": "Object_41",
      "primitives": [
        {
          "attributes": {
            "NORMAL": 165,
            "POSITION": 164,
            "TEXCOORD_0": 166
          },
          "indices": 167,
          "material": 0,
          "mode": 4
        }
      ]
    },
    {
      "name": "Object_42",
      "primitives": [
        {
          "attributes": {
            "NORMAL": 169,
            "POSITION": 168,
            "TEXCOORD_0": 170
          },
          "indices": 171,
          "material": 0,
          "mode": 4
        }
      ]
    },
    {
      "name": "Object_43",
      "primitives": [
        {
          "attributes": {
            "NORMAL": 173,
            "POSITION": 172,
            "TEXCOORD_0": 174
          },
          "indices": 175,
          "material": 6,
          "mode": 4
        }
      ]
    },
    {
      "name": "Object_44",
      "primitives": [
        {
          "attributes": {
            "NORMAL": 177,
            "POSITION": 176,
            "TEXCOORD_0": 178
          },
          "indices": 179,
          "material": 6,
          "mode": 4
        }
      ]
    }
  ],
  "nodes": [
    {
      "children": [
        1
      ],
      "matrix": [
        1.0,
        0.0,
        0.0,
        0.0,
        0.0,
        2.220446049250313e-16,
        -1.0,
        0.0,
        0.0,
        1.0,
        2.220446049250313e-16,
        0.0,
        0.0,
        0.0,
        0.0,
        1.0
      ],
      "name": "Sketchfab_model"
    },
    {
      "children": [
        2
      ],
      "name": "root"
    },
    {
      "children": [
        3,
        5,
        7,
        9,
        11,
        13,
        15,
        17,
        19,
        21,
        23,
        25,
        27,
        29,
        31,
        33,
        35,
        37,
        39,
        41,
        43,
        45,
        47,
        49,
        51,
        53,
        55,
        57,
        59,
        61,
        63,
        65,
        67,
        69,
        71,
        73,
        75,
        77,
        79,
        81,
        83,
        85,
        87,
        89,
        91
      ],
      "matrix": [
        1.0,
        0.0,
        0.0,
        0.0,
        0.0,
        2.220446049250313e-16,
        1.0,
        0.0,
        0.0,
        -1.0,
        2.220446049250313e-16,
        0.0,
        0.0,
        0.0,
        0.0,
        1.0
      ],
      "name": "GLTF_SceneRootNode"
    },
    {
      "children": [
        4
      ],
      "matrix": [
        -1.0,
        -0.0,
        -0.0,
        -0.0,
        0.0,
        -1.7749400656325098e-07,
        1.0528308153152317,
        0.0,
        0.0,
        -1.0528308153152317,
        -1.7749400656325098e-07,
        0.0,
        -0.9701412916183472,
        0.31543105840682983,
        1.5800108909606934,
        1.0
      ],
      "name": "LOD_A_WHEELGUARD_FRONT_LEFT_mm_misc.001_0"
    },
    {
      "mesh": 0,
      "name": "Object_4"
    },
    {
      "children": [
        6
      ],
      "matrix": [
        -1.0,
        -0.0,
        -0.0,
        -0.0,
        0.0,
        -1.7749400656325098e-07,
        1.0528308153152317,
        0.0,
        0.0,
        -1.0528308153152317,
        -1.7749400656325098e-07,
        0.0,
        -0.9318684935569763,
        0.31543105840682983,
        1.5800108909606934,
        1.0
      ],
      "name": "LOD_A_TYRE_mm_tyre.001_1"
    },
    {
      "mesh": 1,
      "name": "Object_6"
    },
    {
      "children": [
        8
      ],
      "matrix": [
        -1.0,
        -0.0,
        0.0,
        -0.0,
        0.0,
        -1.8294597058869756e-07,
        1.0851699113845672,
        0.0,
        0.0,
        -1.0851699113845672,
        -1.8294597058869756e-07,
        0.0,
        -0.9542731642723083,
        0.3255003094673157,
        -2.011200189590454,
        1.0
      ],
      "name": "LOD_A_WHEEL_REAR_mm_wheel.001_2"
    },
    {
      "mesh": 2,
      "name": "Object_8"
    },
    {
      "children": [
        10
      ],
      "matrix": [
        -1.0,
        -0.0,
        -0.0,
        -0.0,
        0.0,
        -1.7749400656325098e-07,
        1.0528308153152317,
        0.0,
        0.0,
        -1.0528308153152317,
        -1.7749400656325098e-07,
        0.0,
        -0.9701412916183472,
        0.31543105840682983,
        1.5800108909606934,
        1.0
      ],
      "name": "LOD_A_WHEELGUARD_FRONT_LEFT_mm_chassis.001_3"
    },
    {
      "mesh": 3,
      "name": "Object_10"
    },
    {
      "children": [
        12
      ],
      "matrix": [
        -1.0,
        -0.0,
        0.0,
        -0.0,
        0.0,
        -1.8294597058869756e-07,
        1.0851699113845672,
        0.0,
        0.0,
        -1.0851699113845672,
        -1.8294597058869756e-07,
        0.0,
        -0.9542731642723083,
        0.3255003094673157,
        -2.011200189590454,
        1.0
      ],
      "name": "LOD_A_TYRE_REAR_mm_tyre.001_4"
    },
    {
      "mesh": 4,
      "name": "Object_12"
    },
    {
      "children": [
        14
      ],
      "matrix": [
        -1.0,
        -0.0,
        -0.0,
        -0.0,
        0.0,
        -1.7749400656325098e-07,
        1.0528308153152317,
        0.0,
        0.0,
        -1.0528308153152317,
        -1.7749400656325098e-07,
        0.0,
        -0.9318684935569763,
        0.31543105840682983,
        1.5800108909606934,
        1.0
      ],
      "name": "LOD_A_WHEEL_mm_wheel.001_5"
    },
    {
      "mesh": 5,
      "name": "Object_14"
    },
    {
      "children": [
        16
      ],
      "matrix": [
        1.0,
        0.0,
        0.0,
        0.0,
        0.0,
        -1.685873969314855e-07,
        0.9999999999999858,
        0.0,
        0.0,
        -0.9999999999999858,
        -1.685873969314855e-07,
        0.0,
        0.0,
        0.0,
        0.0,
        1.0
      ],
      "name": "LOD_A_CHASSIS_mm_lights_6"
    },
    {
      "mesh": 6,
      "name": "Object_16"
    },
    {
      "children": [
        18
      ],
      "matrix": [
        1.0,
        0.0,
        0.0,
        0.0,
        0.0,
        -1.685873969314855e-07,
        0.9999999999999858,
        0.0,
        0.0,
        -0.9999999999999858,
        -1.685873969314855e-07,
        0.0,
        0.0,
        0.0,
        0.0,
        1.0
      ],
      "name": "LOD_A_MIRROR_RIGHT_mm_misc_7"
    },
    {
      "mesh": 7,
      "name": "Object_18"
    },
    {
      "children": [
        20
      ],
      "matrix": [
        1.0,
        0.0,
        0.0,
        0.0,
        0.0,
        -1.685873969314855e-07,
        0.9999999999999858,
        0.0,
        0.0,
        -0.9999999999999858,
        -1.685873969314855e-07,
        0.0,
        0.0,
        0.0,
        0.0,
        1.0
      ],
      "name": "LOD_A_STRUT_UPPER_REAR_LEFT_mm_misc_8"
    },
    {
      "mesh": 8,
      "name": "Object_20"
    },
    {
      "children": [
        22
      ],
      "matrix": [
        1.0,
        0.0,
        0.0,
        0.0,
        0.0,
        -1.685873969314855e-07,
        0.9999999999999858,
        0.0,
        0.0,
        -0.9999999999999858,
        -1.685873969314855e-07,
        0.0,
        0.0,
        0.0,
        0.0,
        1.0
      ],
      "name": "LOD_A_STRUT_LOWER_FRONT_RIGHT_mm_misc_9"
    },
    {
      "mesh": 9,
      "name": "Object_22"
    },
    {
      "children": [
        24
      ],
      "matrix": [
        1.0,
        0.0,
        0.0,
        0.0,
        0.0,
        -1.685873969314855e-07,
        0.9999999999999858,
        0.0,
        0.0,
        -0.9999999999999858,
        -1.685873969314855e-07,
        0.0,
        0.0,
        0.0,
        0.0,
        1.0
      ],
      "name": "LOD_A_STRUT_LOWER_REAR_RIGHT_mm_misc_10"
    },
    {
      "mesh": 10,
      "name": "Object_24"
    },
    {
      "children": [
        26
      ],
      "matrix": [
        1.0,
        0.0,
        0.0,
        0.0,
        0.0,
        -1.7749400656325098e-07,
        1.0528308153152317,
        0.0,
        0.0,
        -1.0528308153152317,
        -1.7749400656325098e-07,
        0.0,
        0.9318684935569763,
        0.31543105840682983,
        1.5800108909606934,
        1.0
      ],
      "name": "LOD_A_WHEEL_mm_wheel_11"
    },
    {
      "mesh": 11,
      "name": "Object_26"
    },
    {
      "children": [
        28
      ],
      "matrix": [
        1.0,
        0.0,
        0.0,
        0.0,
        0.0,
        -1.685873969314855e-07,
        0.9999999999999858,
        0.0,
        0.0,
        -0.9999999999999858,
        -1.685873969314855e-07,
        0.0,
        0.0,
        0.0,
        0.0,
        1.0
      ],
      "name": "LOD_A_STRUT_UPPER_REAR_RIGHT_mm_misc_12"
    },
    {
      "mesh": 12,
      "name": "Object_28"
    },
    {
      "children": [
        30
      ],
      "matrix": [
        1.0,
        0.0,
        0.0,
        0.0,
        0.0,
        -1.8294597058869756e-07,
        1.0851699113845672,
        0.0,
        0.0,
        -1.0851699113845672,
        -1.8294597058869756e-07,
        0.0,
        0.9542731642723083,
        0.3255003094673157,
        -2.011200189590454,
        1.0
      ],
      "name": "LOD_A_TYRE_REAR_mm_tyre_13"
    },
    {
      "mesh": 13,
      "name": "Object_30"
    },
    {
      "children": [
        32
      ],
      "matrix": [
        1.0,
        0.0,
        0.0,
        0.0,
        0.0,
        -1.685873969314855e-07,
        0.9999999999999858,
        0.0,
        0.0,
        -0.9999999999999858,
        -1.685873969314855e-07,
        0.0,
        0.0,
        0.0,
        0.0,
        1.0
      ],
      "name": "LOD_A_MIRROR_GLASS_RIGHT_mm_misc_14"
    },
    {
      "mesh": 14,
      "name": "Object_32"
    },
    {
      "children": [
        34
      ],
      "matrix": [
        1.0,
        0.0,
        0.0,
        0.0,
        0.0,
        -1.7749400656325098e-07,
        1.0528308153152317,
        0.0,
        0.0,
        -1.0528308153152317,
        -1.7749400656325098e-07,
        0.0,
        0.9701412916183472,
        0.31543105840682983,
        1.5800108909606934,
        1.0
      ],
      "name": "LOD_A_WHEELGUARD_FRONT_LEFT_mm_chassis_15"
    },
    {
      "mesh": 15,
      "name": "Object_34"
    },
    {
      "children": [
        36
      ],
      "matrix": [
        1.0,
        0.0,
        0.0,
        0.0,
        0.0,
        -1.685873969314855e-07,
        0.9999999999999858,
        0.0,
        0.0,
        -0.9999999999999858,
        -1.685873969314855e-07,
        0.0,
        0.0,
        0.0,
        0.0,
        1.0
      ],
      "name": "LOD_A_REARBUMPER_mm_misc_16"
    },
    {
      "mesh": 16,
      "name": "Object_36"
    },
    {
      "children": [
        38
      ],
      "matrix": [
        1.0,
        0.0,
        0.0,
        0.0,
        0.0,
        -1.685873969314855e-07,
        0.9999999999999858,
        0.0,
        0.0,
        -0.9999999999999858,
        -1.685873969314855e-07,
        0.0,
        0.0,
        0.0,
        0.0,
        1.0
      ],
      "name": "LOD_A_INTERIOR_mm_cab_17"
    },
    {
      "mesh": 17,
      "name": "Object_38"
    },
    {
      "children": [
        40
      ],
      "matrix": [
        1.0,
        0.0,
        0.0,
        0.0,
        0.0,
        -1.685873969314855e-07,
        0.9999999999999858,
        0.0,
        0.0,
        -0.9999999999999858,
        -1.685873969314855e-07,
        0.0,
        0.0,
        0.0,
        0.0,
        1.0
      ],
      "name": "LOD_A_CHASSIS_mm_chassis_18"
    },
    {
      "mesh": 18,
      "name": "Object_40"
    },
    {
      "children": [
        42
      ],
      "matrix": [
        1.0,
        0.0,
        0.0,
        0.0,
        0.0,
        -1.685873969314855e-07,
        0.9999999999999858,
        0.0,
        0.0,
        -0.9999999999999858,
        -1.685873969314855e-07,
        0.0,
        0.0,
        0.0,
        0.0,
        1.0
      ],
      "name": "LOD_A_STRUT_LOWER_FRONT_LEFT_mm_misc_19"
    },
    {
      "mesh": 19,
      "name": "Object_42"
    },
    {
      "children": [
        44
      ],
      "matrix": [
        1.0,
        0.0,
        0.0,
        0.0,
        0.0,
        -1.685873969314855e-07,
        0.9999999999999858,
        0.0,
        0.0,
        -0.9999999999999858,
        -1.685873969314855e-07,
        0.0,
        0.0,
        0.0,
        0.0,
        1.0
      ],
      "name": "LOD_A_BODY_mm_chassis_20"
    },
    {
      "mesh": 20,
      "name": "Object_44"
    },
    {
      "children": [
        46
      ],
      "matrix": [
        1.0,
        0.0,
        0.0,
        0.0,
        0.0,
        -1.685873969314855e-07,
        0.9999999999999858,
        0.0,
        0.0,
        -0.9999999999999858,
        -1.685873969314855e-07,
        0.0,
        0.0,
        0.0,
        0.0,
        1.0
      ],
      "name": "LOD_A_REARBUMPER_mm_lights_21"
    },
    {
      "mesh": 21,
      "name": "Object_46"
    },
    {
      "children": [
        48
      ],
      "matrix": [
        1.0,
        0.0,
        0.0,
        0.0,
        0.0,
        -1.685873969314855e-07,
        0.9999999999999858,
        0.0,
        0.0,
        -0.9999999999999858,
        -1.685873969314855e-07,
        0.0,
        0.0,
        0.0,
        0.0,
        1.0
      ],
      "name": "LOD_A_STRUT_LOWER_REAR_LEFT_mm_misc_22"
    },
    {
      "mesh": 22,
      "name": "Object_48"
    },
    {
      "children": [
        50
      ],
      "matrix": [
        1.0,
        0.0,
        0.0,
        0.0,
        0.0,
        -1.685873969314855e-07,
        0.9999999999999858,
        0.0,
        0.0,
        -0.9999999999999858,
        -1.685873969314855e-07,
        0.0,
        0.0,
        0.0,
        0.0,
        1.0
      ],
      "name": "LOD_A_BODY_mm_ext_23"
    },
    {
      "mesh": 23,
      "name": "Object_50"
    },
    {
      "children": [
        52
      ],
      "matrix": [
        1.0,
        0.0,
        0.0,
        0.0,
        0.0,
        -1.685873969314855e-07,
        0.9999999999999858,
        0.0,
        0.0,
        -0.9999999999999858,
        -1.685873969314855e-07,
        0.0,
        0.0,
        0.0,
        0.0,
        1.0
      ],
      "name": "LOD_A_BODY_mm_misc_24"
    },
    {
      "mesh": 24,
      "name": "Object_52"
    },
    {
      "children": [
        54
      ],
      "matrix": [
        1.0,
        0.0,
        0.0,
        0.0,
        0.0,
        -1.685873969314855e-07,
        0.9999999999999858,
        0.0,
        0.0,
        -0.9999999999999858,
        -1.685873969314855e-07,
        0.0,
        0.0,
        0.0,
        0.0,
        1.0
      ],
      "name": "LOD_A_MIRROR_LEFT_mm_misc_25"
    },
    {
      "mesh": 25,
      "name": "Object_54"
    },
    {
      "children": [
        56
      ],
      "matrix": [
        1.0,
        0.0,
        0.0,
        0.0,
        0.0,
        -1.8294597058869756e-07,
        1.0851699113845672,
        0.0,
        0.0,
        -1.0851699113845672,
        -1.8294597058869756e-07,
        0.0,
        0.9542731642723083,
        0.3255003094673157,
        -2.011200189590454,
        1.0
      ],
      "name": "LOD_A_WHEEL_REAR_mm_wheel_26"
    },
    {
      "mesh": 26,
      "name": "Object_56"
    },
    {
      "children": [
        58
      ],
      "matrix": [
        1.0,
        0.0,
        0.0,
        0.0,
        0.0,
        -1.685873969314855e-07,
        0.9999999999999858,
        0.0,
        0.0,
        -0.9999999999999858,
        -1.685873969314855e-07,
        0.0,
        0.0,
        0.0,
        0.0,
        1.0
      ],
      "name": "LOD_A_STRUT_UPPER_FRONT_RIGHT_mm_ext_27"
    },
    {
      "mesh": 27,
      "name": "Object_58"
    },
    {
      "children": [
        60
      ],
      "matrix": [
        1.0,
        0.0,
        0.0,
        0.0,
        0.0,
        -1.685873969314855e-07,
        0.9999999999999858,
        0.0,
        0.0,
        -0.9999999999999858,
        -1.685873969314855e-07,
        0.0,
        0.0,
        0.0,
        0.0,
        1.0
      ],
      "name": "LOD_A_REARBUMPER_mm_ext_28"
    },
    {
      "mesh": 28,
      "name": "Object_60"
    },
    {
      "children": [
        62
      ],
      "matrix": [
        1.0,
        0.0,
        0.0,
        0.0,
        0.0,
        -1.685873969314855e-07,
        0.9999999999999858,
        0.0,
        0.0,
        -0.9999999999999858,
        -1.685873969314855e-07,
        0.0,
        0.0,
        0.0,
        0.0,
        1.0
      ],
      "name": "LOD_A_EXHAUST_mm_ext_29"
    },
    {
      "mesh": 29,
      "name": "Object_62"
    },
    {
      "children": [
        64
      ],
      "matrix": [
        1.0,
        0.0,
        0.0,
        0.0,
        0.0,
        -1.685873969314855e-07,
        0.9999999999999858,
        0.0,
        0.0,
        -0.9999999999999858,
        -1.685873969314855e-07,
        0.0,
        0.0,
        0.0,
        0.0,
        1.0
      ],
      "name": "LOD_A_MIRROR_LEFT_mm_ext_30"
    },
    {
      "mesh": 30,
      "name": "Object_64"
    },
    {
      "children": [
        66
      ],
      "matrix": [
        1.0,
        0.0,
        0.0,
        0.0,
        0.0,
        -1.7749400656325098e-07,
        1.0528308153152317,
        0.0,
        0.0,
        -1.0528308153152317,
        -1.7749400656325098e-07,
        0.0,
        0.9318684935569763,
        0.31543105840682983,
        1.5800108909606934,
        1.0
      ],
      "name": "LOD_A_TYRE_mm_tyre_31"
    },
    {
      "mesh": 31,
      "name": "Object_66"
    },
    {
      "children": [
        68
      ],
      "matrix": [
        1.0,
        0.0,
        0.0,
        0.0,
        0.0,
        -1.685873969314855e-07,
        0.9999999999999858,
        0.0,
        0.0,
        -0.9999999999999858,
        -1.685873969314855e-07,
        0.0,
        0.0,
        0.0,
        0.0,
        1.0
      ],
      "name": "LOD_A_CHASSIS_mm_misc_32"
    },
    {
      "mesh": 32,
      "name": "Object_68"
    },
    {
      "children": [
        70
      ],
      "matrix": [
        1.0,
        0.0,
        0.0,
        0.0,
        0.0,
        -1.7749400656325098e-07,
        1.0528308153152317,
        0.0,
        0.0,
        -1.0528308153152317,
        -1.7749400656325098e-07,
        0.0,
        0.9701412916183472,
        0.31543105840682983,
        1.5800108909606934,
        1.0
      ],
      "name": "LOD_A_WHEELGUARD_FRONT_LEFT_mm_misc_33"
    },
    {
      "mesh": 33,
      "name": "Object_70"
    },
    {
      "children": [
        72
      ],
      "matrix": [
        1.0,
        0.0,
        0.0,
        0.0,
        0.0,
        -1.685873969314855e-07,
        0.9999999999999858,
        0.0,
        0.0,
        -0.9999999999999858,
        -1.685873969314855e-07,
        0.0,
        0.0,
        0.5895999670028687,
        0.48960572481155396,
        1.0
      ],
      "name": "LOD_A_STEERING_WHEEL_mm_cab_34"
    },
    {
      "mesh": 34,
      "name": "Object_72"
    },
    {
      "children": [
        74
      ],
      "matrix": [
        1.0,
        0.0,
        0.0,
        0.0,
        0.0,
        -1.685873969314855e-07,
        0.9999999999999858,
        0.0,
        0.0,
        -0.9999999999999858,
        -1.685873969314855e-07,
        0.0,
        0.0,
        0.0,
        0.0,
        1.0
      ],
      "name": "LOD_A_CHASSIS_mm_ext_35"
    },
    {
      "mesh": 35,
      "name": "Object_74"
    },
    {
      "children": [
        76
      ],
      "matrix": [
        1.0,
        0.0,
        0.0,
        0.0,
        0.0,
        -1.685873969314855e-07,
        0.9999999999999858,
        0.0,
        0.0,
        -0.9999999999999858,
        -1.685873969314855e-07,
        0.0,
        0.0,
        0.0,
        0.0,
        1.0
      ],
      "name": "LOD_A_FRONTBUMPER_mm_misc_36"
    },
    {
      "mesh": 36,
      "name": "Object_76"
    },
    {
      "children": [
        78
      ],
      "matrix": [
        1.0,
        0.0,
        0.0,
        0.0,
        0.0,
        -1.685873969314855e-07,
        0.9999999999999858,
        0.0,
        0.0,
        -0.9999999999999858,
        -1.685873969314855e-07,
        0.0,
        0.0,
        0.0,
        0.0,
        1.0
      ],
      "name": "LOD_A_BODY_mm_badges_37"
    },
    {
      "mesh": 37,
      "name": "Object_78"
    },
    {
      "children": [
        80
      ],
      "matrix": [
        1.0,
        0.0,
        0.0,
        0.0,
        0.0,
        -1.685873969314855e-07,
        0.9999999999999858,
        0.0,
        0.0,
        -0.9999999999999858,
        -1.685873969314855e-07,
        0.0,
        0.0,
        0.0,
        0.0,
        1.0
      ],
      "name": "LOD_A_STRUT_UPPER_FRONT_LEFT_mm_ext_38"
    },
    {
      "mesh": 38,
      "name": "Object_80"
    },
    {
      "children": [
        82
      ],
      "matrix": [
        1.0,
        0.0,
        0.0,
        0.0,
        0.0,
        -1.685873969314855e-07,
        0.9999999999999858,
        0.0,
        0.0,
        -0.9999999999999858,
        -1.685873969314855e-07,
        0.0,
        0.0,
        0.0,
        0.0,
        1.0
      ],
      "name": "LOD_A_MIRROR_RIGHT_mm_ext_39"
    },
    {
      "mesh": 39,
      "name": "Object_82"
    },
    {
      "children": [
        84
      ],
      "matrix": [
        1.0,
        0.0,
        0.0,
        0.0,
        0.0,
        -1.685873969314855e-07,
        0.9999999999999858,
        0.0,
        0.0,
        -0.9999999999999858,
        -1.685873969314855e-07,
        0.0,
        0.0,
        0.0,
        0.0,
        1.0
      ],
      "name": "LOD_A_DOOR_RIGHT_mm_ext_40"
    },
    {
      "mesh": 40,
      "name": "Object_84"
    },
    {
      "children": [
        86
      ],
      "matrix": [
        1.0,
        0.0,
        0.0,
        0.0,
        0.0,
        -1.685873969314855e-07,
        0.9999999999999858,
        0.0,
        0.0,
        -0.9999999999999858,
        -1.685873969314855e-07,
        0.0,
        0.0,
        0.0,
        0.0,
        1.0
      ],
      "name": "LOD_A_STEERING_ARM_LEFT_mm_misc_41"
    },
    {
      "mesh": 41,
      "name": "Object_86"
    },
    {
      "children": [
        88
      ],
      "matrix": [
        1.0,
        0.0,
        0.0,
        0.0,
        0.0,
        -1.685873969314855e-07,
        0.9999999999999858,
        0.0,
        0.0,
        -0.9999999999999858,
        -1.685873969314855e-07,
        0.0,
        0.0,
        0.0,
        0.0,
        1.0
      ],
      "name": "LOD_A_MIRROR_GLASS_LEFT_mm_misc_42"
    },
    {
      "mesh": 42,
      "name": "Object_88"
    },
    {
      "children": [
        90
      ],
      "matrix": [
        1.0,
        0.0,
        0.0,
        0.0,
        0.0,
        -1.685873969314855e-07,
        0.9999999999999858,
        0.0,
        0.0,
        -0.9999999999999858,
        -1.685873969314855e-07,
        0.0,
        0.0,
        0.0,
        0.0,
        1.0
      ],
      "name": "LOD_A_DOOR_LEFT_mm_ext_43"
    },
    {
      "mesh": 43,
      "name": "Object_90"
    },
    {
      "children": [
        92
      ],
      "matrix": [
        1.0,
        0.0,
        0.0,
        0.0,
        0.0,
        -1.685873969314855e-07,
        0.9999999999999858,
        0.0,
        0.0,
        -0.9999999999999858,
        -1.685873969314855e-07,
        0.0,
        0.0,
        0.0,
        0.0,
        1.0
      ],
      "name": "LOD_A_FRONTBUMPER_mm_ext_44"
    },
    {
      "mesh": 44,
      "name": "Object_92"
    }
  ],
  "samplers": [
    {
      "magFilter": 9729,
      "minFilter": 9987,
      "wrapS": 10497,
      "wrapT": 10497
    }
  ],
  "scene": 0,
  "scenes": [
    {
      "name": "Sketchfab_Scene",
      "nodes": [
        0
      ]
    }
  ],
  "textures": [
    {
      "sampler": 0,
      "source": 0
    },
    {
      "sampler": 0,
      "source": 1
    },
    {
      "sampler": 0,
      "source": 2
    },
    {
      "sampler": 0,
      "source": 3
    },
    {
      "sampler": 0,
      "source": 4
    },
    {
      "sampler": 0,
      "source": 5
    },
    {
      "sampler": 0,
      "source": 6
    },
    {
      "sampler": 0,
      "source": 7
    }
  ]
}
