<?xml version="1.0" standalone="no"?>
<!DOCTYPE svg PUBLIC "-//W3C//DTD SVG 20010904//EN"
 "http://www.w3.org/TR/2001/REC-SVG-20010904/DTD/svg10.dtd">
<svg version="1.0" xmlns="http://www.w3.org/2000/svg"
 width="500.000000pt" height="500.000000pt" viewBox="0 0 500.000000 500.000000"
 preserveAspectRatio="xMidYMid meet">

<g transform="translate(0.000000,500.000000) scale(0.100000,-0.100000)"
fill="#000000" stroke="none">
<path d="M2596 4048 c-2 -7 -10 -51 -16 -98 -7 -47 -16 -107 -21 -135 -4 -27
-11 -76 -15 -107 l-7 -58 31 0 c17 0 32 6 35 13 3 9 9 8 23 -5 80 -70 206 -31
234 72 17 62 5 108 -40 152 -34 34 -43 38 -89 38 -29 0 -61 -5 -73 -11 -17 -9
-19 -8 -15 8 3 10 8 43 12 74 6 53 5 57 -17 63 -33 8 -38 8 -42 -6z m175 -207
c60 -61 23 -156 -61 -156 -34 0 -47 6 -67 30 -21 24 -24 36 -20 69 11 82 92
113 148 57z"/>
<path d="M2023 3980 c-28 -11 -28 -19 -2 -176 12 -68 19 -128 15 -131 -4 -4
-53 39 -109 95 -96 96 -105 102 -129 93 -36 -13 -37 -18 -26 -81 13 -77 36
-235 34 -237 -1 -1 -51 45 -111 102 -109 103 -110 103 -137 89 -16 -8 -28 -18
-28 -22 0 -5 63 -68 140 -141 116 -110 144 -132 163 -127 52 14 52 13 27 166
-12 78 -20 143 -18 145 2 2 39 -31 83 -73 137 -132 128 -126 164 -108 17 9 31
20 31 24 0 24 -65 392 -69 391 -3 0 -16 -4 -28 -9z"/>
<path d="M2313 3928 c-68 -14 -113 -72 -113 -144 0 -77 49 -135 128 -150 41
-8 114 12 142 38 l22 21 -21 20 c-20 20 -21 20 -40 3 -11 -10 -39 -21 -63 -23
-37 -4 -47 -1 -72 22 -38 35 -27 41 83 50 135 10 138 13 101 89 -31 64 -88 90
-167 74z m91 -69 c45 -36 36 -43 -67 -54 -63 -7 -67 -6 -67 13 0 27 45 62 80
62 15 0 39 -9 54 -21z"/>
<path d="M3334 3557 l-136 -133 67 -71 c103 -111 198 -147 278 -107 105 53
145 165 94 261 -20 38 -148 183 -161 183 -4 0 -67 -60 -142 -133z m187 6 c55
-58 69 -84 69 -128 0 -74 -59 -135 -130 -135 -42 0 -66 13 -123 68 l-47 46 92
93 c51 51 95 93 98 93 3 0 22 -17 41 -37z"/>
<path d="M3002 3598 c-17 -17 -15 -67 3 -74 8 -4 26 -3 40 0 20 5 25 13 25 36
0 40 -42 64 -68 38z"/>
<path d="M1550 3275 c-16 -20 -5 -62 19 -70 42 -13 72 25 51 65 -13 24 -52 27
-70 5z"/>
<path d="M3615 3231 c-76 -26 -115 -74 -115 -142 0 -64 51 -144 102 -162 13
-5 19 0 24 18 5 19 -1 31 -24 53 -36 33 -49 74 -36 110 15 42 33 37 57 -15 13
-26 35 -72 50 -101 l28 -53 27 17 c101 59 93 213 -13 264 -42 21 -65 23 -100
11z m87 -71 c37 -18 54 -69 36 -107 -7 -15 -17 -27 -22 -26 -5 1 -25 31 -44
68 -29 54 -33 68 -22 75 8 5 17 8 20 6 3 -1 17 -8 32 -16z"/>
<path d="M1096 3175 c-9 -35 -4 -41 52 -61 61 -22 72 -32 49 -45 -25 -14 -57
-82 -57 -121 0 -38 29 -91 62 -111 99 -62 190 -36 233 67 10 24 14 49 9 69 -5
24 -3 29 9 24 11 -4 19 4 26 25 6 17 10 32 9 34 -5 4 -373 144 -380 144 -3 0
-9 -11 -12 -25z m266 -155 c26 -27 30 -36 25 -68 -13 -78 -90 -106 -149 -53
-26 23 -32 36 -31 67 2 81 96 113 155 54z"/>
<path d="M3735 2880 c-107 -78 -120 -90 -118 -116 4 -46 8 -50 85 -63 40 -7
105 -19 145 -27 93 -18 90 -19 85 15 -4 32 1 30 -139 57 -51 9 -93 20 -93 24
0 4 39 34 86 66 47 32 88 62 90 66 7 11 -6 68 -14 67 -4 0 -61 -40 -127 -89z"/>
<path d="M1108 2731 c-30 -27 -33 -34 -33 -88 0 -32 4 -66 9 -75 6 -13 4 -18
-8 -18 -11 0 -16 -9 -16 -34 l0 -33 88 -6 c48 -4 112 -10 143 -13 56 -6 56 -6
62 22 3 16 2 32 -1 36 -4 4 -44 10 -90 14 -102 9 -132 27 -132 82 0 69 28 82
150 72 47 -4 86 -7 86 -6 1 0 5 15 8 32 l7 31 -53 6 c-29 4 -83 7 -120 7 -61
0 -71 -3 -100 -29z"/>
<path d="M3707 2591 c-45 -29 -67 -74 -67 -137 0 -50 21 -114 37 -114 4 0 14
7 23 15 16 14 16 20 3 57 -20 59 1 112 51 131 18 7 18 1 15 -110 -4 -117 -4
-118 19 -121 39 -6 106 34 130 77 38 67 23 143 -37 194 -27 22 -42 27 -89 27
-39 0 -66 -6 -85 -19z m157 -73 c23 -33 20 -87 -6 -115 -39 -42 -48 -31 -48
57 0 73 2 80 19 80 11 0 27 -10 35 -22z"/>
<path d="M1191 2409 c-137 -29 -133 -251 5 -288 53 -14 109 2 151 44 31 31 33
38 33 99 0 67 -14 110 -45 136 -13 11 -18 10 -34 -4 -19 -17 -19 -18 5 -53 13
-20 24 -50 24 -68 0 -30 -32 -85 -49 -85 -5 0 -16 44 -26 98 -25 132 -23 130
-64 121z m9 -76 c0 -5 7 -39 15 -77 8 -38 13 -71 11 -74 -8 -8 -47 10 -66 31
-24 25 -26 69 -4 102 15 23 44 34 44 18z"/>
<path d="M3616 2256 c-8 -37 -3 -40 93 -60 42 -8 125 -27 186 -40 60 -13 110
-24 111 -23 1 1 5 16 8 33 l7 31 -78 17 c-43 10 -107 25 -143 33 -36 8 -90 20
-122 27 l-56 12 -6 -30z"/>
<path d="M1374 2126 c-3 -8 -1 -23 5 -35 24 -45 12 -57 -97 -100 l-50 -20 -16
34 c-16 33 -26 36 -58 18 -4 -2 -1 -19 6 -38 15 -36 11 -45 -26 -58 -15 -5
-16 -11 -7 -37 13 -34 10 -33 45 -20 22 9 29 7 40 -9 9 -13 21 -17 35 -14 17
5 20 11 15 34 -5 26 -2 29 65 55 92 36 119 62 119 112 0 61 -59 122 -76 78z"/>
<path d="M3607 2124 c-44 -24 -77 -85 -77 -145 0 -89 59 -149 145 -149 62 0
99 21 131 75 22 39 26 54 22 101 -5 58 -28 93 -80 120 -35 18 -105 17 -141 -2z
m123 -71 c14 -9 28 -22 32 -27 16 -22 8 -75 -15 -101 -58 -68 -187 1 -156 82
6 16 18 36 26 45 21 23 81 23 113 1z"/>
<path d="M1435 1904 c-90 -65 -124 -101 -131 -139 -8 -45 20 -102 67 -133 19
-13 33 -31 32 -40 -4 -26 24 -57 39 -45 7 5 61 45 121 87 l107 78 -20 29 -21
28 -74 -54 c-85 -63 -121 -70 -160 -30 -49 48 -28 89 87 167 53 36 56 43 30
74 l-17 22 -60 -44z"/>
<path d="M3364 1929 c-19 -21 -19 -21 34 -68 l53 -47 -35 -12 c-62 -23 -103
-102 -85 -166 14 -51 53 -92 105 -112 39 -15 51 -16 82 -5 51 18 100 68 108
108 4 22 11 32 19 29 7 -2 23 6 35 19 l21 23 -153 126 c-84 69 -156 126 -159
126 -3 0 -14 -10 -25 -21z m151 -173 c40 -17 69 -67 60 -103 -9 -39 -50 -73
-86 -73 -23 0 -40 9 -65 36 -49 52 -41 108 20 138 38 19 30 19 71 2z"/>
<path d="M1634 1621 c-75 -46 -98 -142 -51 -212 32 -49 105 -83 161 -75 78 12
137 98 122 179 -18 98 -149 159 -232 108z m141 -66 c46 -46 27 -132 -34 -153
-40 -14 -79 -4 -101 28 -30 42 -25 77 14 116 42 42 84 45 121 9z"/>
<path d="M3197 1588 c-44 -9 -83 -37 -109 -76 -25 -38 -23 -59 8 -65 20 -3 27
1 34 18 15 39 59 66 104 63 22 -2 41 -7 43 -13 1 -5 -38 -39 -87 -74 -86 -60
-90 -65 -77 -84 24 -36 63 -59 108 -64 36 -4 52 1 90 25 47 30 79 81 79 124
-1 30 -32 99 -56 120 -27 23 -92 36 -137 26z m123 -152 c0 -19 -8 -43 -17 -55
-23 -27 -81 -37 -107 -18 -17 13 -15 17 45 59 35 26 67 47 72 47 4 1 7 -14 7
-33z"/>
<path d="M1982 1387 c-43 -91 -69 -111 -125 -96 -24 6 -29 3 -42 -21 -17 -33
-8 -40 56 -40 29 0 37 -3 33 -14 -4 -9 5 -20 24 -30 l29 -15 55 117 c71 151
73 158 51 166 -10 3 -23 9 -30 12 -8 3 -26 -25 -51 -79z"/>
<path d="M2956 1457 c-19 -14 -18 -16 12 -90 18 -41 32 -85 32 -97 0 -21 -35
-63 -59 -71 -16 -6 2 -59 20 -59 6 0 26 15 44 34 26 28 33 31 41 19 8 -12 14
-13 36 -3 l27 13 -20 51 c-11 28 -24 60 -29 71 -5 11 -20 47 -33 80 -24 63
-40 74 -71 52z"/>
<path d="M2307 1373 c-2 -5 -10 -36 -17 -70 -7 -35 -18 -63 -24 -63 -6 0 -46
8 -88 17 -43 9 -80 14 -82 12 -2 -2 -7 -15 -11 -29 -6 -25 -4 -26 84 -44 50
-10 91 -22 91 -27 0 -4 -5 -31 -11 -59 -10 -46 -14 -51 -33 -47 -11 2 -56 13
-99 22 -42 10 -79 16 -82 13 -2 -2 -6 -15 -7 -28 -2 -19 3 -25 27 -31 69 -18
215 -49 227 -49 14 0 101 360 89 371 -10 11 -60 19 -64 12z"/>
<path d="M2632 1368 c-14 -14 -15 -47 -3 -66 5 -8 21 -12 37 -10 23 2 30 8 32
31 6 47 -36 75 -66 45z"/>
</g>
</svg>
