<svg version="1.1" id="Layer_1" xmlns="http://www.w3.org/2000/svg" xmlns:xlink="http://www.w3.org/1999/xlink" x="0px" y="0px"
	 width="100%" viewBox="0 0 1024 1024" enable-background="new 0 0 1024 1024" xml:space="preserve">
<path fill="#000000" opacity="1.000000" stroke="none" 
	d="
M391.711243,841.744141 
	C400.622498,828.844910 409.436127,816.314270 417.985291,803.605713 
	C420.130035,800.417480 422.209045,799.804321 425.810913,800.941589 
	C436.925720,804.450928 436.938751,804.309937 437.240448,816.237183 
	C437.581268,829.712158 437.959351,843.186218 438.392120,856.658447 
	C438.460846,858.797241 438.902191,860.924072 439.176331,863.096313 
	C441.144897,863.204712 441.399841,861.635254 442.071533,860.681396 
	C451.657349,847.068604 461.281342,833.481323 470.697845,819.751892 
	C472.972321,816.435669 475.039978,815.145447 479.271301,816.532654 
	C491.626495,820.583069 489.889984,818.419983 490.329193,830.897339 
	C491.148773,854.179443 491.987274,877.460938 492.826508,900.742371 
	C492.863251,901.761780 492.827393,902.740112 491.733765,904.059326 
	C487.605499,903.693726 483.394165,902.270874 479.295013,900.622375 
	C476.603638,899.539978 476.992188,896.795227 476.927216,894.526428 
	C476.465393,878.387329 476.075562,862.246033 475.639221,846.106140 
	C475.581635,843.976624 475.980103,841.764099 474.363892,839.140991 
	C469.334381,846.206909 464.450653,852.996399 459.643555,859.839783 
	C453.709930,868.286804 447.799164,876.750610 441.968689,885.268860 
	C440.327087,887.667297 438.552673,889.648010 435.478668,888.098755 
	C431.859894,886.275024 425.722198,887.991882 425.466431,881.262939 
	C424.847137,864.968811 424.243256,848.674011 423.641235,832.379211 
	C423.543640,829.738098 423.900452,827.036682 422.136383,823.770630 
	C420.437225,826.141663 418.929962,828.182373 417.487518,830.267883 
	C408.679718,843.002808 399.740021,855.650452 391.174286,868.546387 
	C388.451080,872.646240 385.671936,874.395691 380.998047,872.203247 
	C378.654388,871.103882 375.725403,871.321350 373.338928,868.570984 
	C379.360901,859.783569 385.438293,850.915222 391.711243,841.744141 
z"/>
<path fill="#000000" opacity="1.000000" stroke="none" 
	d="
M242.440857,699.552979 
	C231.537216,704.987122 220.960785,710.242493 210.384872,715.498840 
	C208.587402,716.392273 206.678391,717.694275 205.369400,714.933105 
	C199.178101,701.873291 191.055359,689.648438 187.017990,675.665833 
	C180.983276,654.765808 189.610535,636.183472 208.606567,627.703552 
	C227.771133,619.148438 247.485703,625.087585 259.378723,643.502075 
	C266.518555,654.556946 271.255096,666.927551 277.365021,678.556335 
	C278.882568,681.444641 277.003479,682.361145 274.941620,683.381958 
	C264.208649,688.695740 253.491135,694.040588 242.440857,699.552979 
M199.572998,669.812134 
	C201.628464,679.575317 207.317230,687.639709 211.651978,697.108154 
	C227.183685,689.324646 242.157639,681.836609 257.111176,674.307922 
	C259.129150,673.291870 258.702545,671.647095 257.873749,670.039246 
	C254.828186,664.131348 252.048981,658.062988 248.638840,652.373047 
	C245.512192,647.156067 240.832611,643.558411 235.182159,640.939514 
	C221.947342,634.805420 196.474213,647.329346 199.572998,669.812134 
z"/>
<path fill="#000000" opacity="1.000000" stroke="none" 
	d="
M849.882446,599.911316 
	C862.818787,587.061523 882.737122,587.664185 894.601501,600.681152 
	C905.417542,612.548035 903.722168,636.086426 887.065430,647.787964 
	C887.442139,650.101501 891.529053,649.685486 890.918152,652.309448 
	C890.094788,655.845947 888.726685,659.275696 887.361938,662.658264 
	C886.598328,664.550964 884.963989,663.925537 883.499756,663.393738 
	C867.223145,657.482361 850.774597,652.001648 834.708679,645.565247 
	C817.719238,638.758972 811.857239,625.377319 817.315918,607.916504 
	C820.442017,597.917053 825.224670,588.916748 833.229980,581.798401 
	C836.097717,579.248352 837.989502,579.425049 839.995605,582.511658 
	C841.517090,584.852600 844.004578,586.525696 844.965759,589.712341 
	C837.037109,595.473389 832.014893,603.296936 829.784302,612.886230 
	C827.606445,622.248657 832.064514,629.082886 842.358521,631.361633 
	C839.407166,619.605042 842.193787,609.297546 849.882446,599.911316 
M879.763550,638.378357 
	C884.465271,634.848938 886.635071,629.880493 887.488831,624.289429 
	C889.033813,614.171448 879.833618,604.490295 869.751648,605.491089 
	C862.563293,606.204590 856.703674,611.270630 854.502380,618.810852 
	C852.421021,625.939941 853.383850,632.421021 859.263245,637.462036 
	C865.202637,642.554504 871.494263,642.865662 879.763550,638.378357 
z"/>
<path fill="#000000" opacity="1.000000" stroke="none" 
	d="
M790.636353,235.688324 
	C778.078735,244.502960 765.824524,253.123749 753.550293,261.715881 
	C745.162292,267.587524 747.552185,266.463623 739.857727,262.202576 
	C733.963196,258.938293 735.688171,254.838440 736.824158,250.300659 
	C739.525085,239.512360 742.143860,228.703491 745.122314,216.573120 
	C742.473022,218.258575 740.750671,219.290527 739.093994,220.418991 
	C730.425781,226.323456 721.691467,232.136856 713.164429,238.239380 
	C710.406372,240.213226 708.194519,240.491119 705.626648,238.307724 
	C704.616272,237.448608 703.537170,236.603149 702.355591,236.024857 
	C698.342590,234.060928 697.794312,231.265015 698.952515,227.026001 
	C703.687195,209.697388 708.062805,192.270569 712.549500,174.874481 
	C712.964111,173.267059 713.229675,171.621307 714.653137,170.312210 
	C718.443848,171.281464 721.216553,174.041183 724.281677,176.238602 
	C726.335327,177.710892 725.283020,179.886185 724.782715,181.773605 
	C721.377258,194.621094 717.937561,207.459488 714.126648,221.732407 
	C716.987244,219.882050 718.982666,218.670486 720.895691,217.340546 
	C730.191772,210.877823 739.536194,204.480621 748.705811,197.842270 
	C751.538025,195.791885 753.719788,195.896973 756.184082,198.145844 
	C758.809387,200.541626 763.318054,201.332077 761.747681,206.798553 
	C758.534607,217.984116 755.762390,229.296509 752.826294,240.561264 
	C752.375305,242.291336 752.018738,244.046005 751.597473,245.881104 
	C754.028503,246.351120 755.252869,244.743057 756.649109,243.773773 
	C765.401978,237.697372 774.333252,231.838959 782.713440,225.279678 
	C787.478394,221.550064 791.296936,221.124298 795.658447,225.300797 
	C796.827332,226.420029 798.594482,226.906570 799.310242,228.918900 
	C797.261841,231.922684 793.633057,233.142639 790.636353,235.688324 
z"/>
<path fill="#000000" opacity="1.000000" stroke="none" 
	d="
M892.305908,494.457642 
	C891.398682,485.413177 890.458740,476.817749 889.830872,468.199615 
	C889.611633,465.190125 888.484802,463.983521 885.533997,464.253693 
	C881.064941,464.662842 876.589844,465.011932 872.114197,465.343994 
	C868.885681,465.583527 869.068176,467.910522 869.254578,470.091949 
	C870.019287,479.039429 870.870850,487.979492 871.670532,496.924042 
	C871.907593,499.575653 871.910156,502.259613 872.320740,504.881683 
	C872.950684,508.905273 871.302063,510.496002 867.347107,510.985657 
	C859.818848,511.917633 859.290710,511.411041 858.645874,503.735291 
	C857.338562,488.173370 855.888916,472.618988 854.147827,457.100800 
	C853.651550,452.677216 854.373413,450.924866 859.263184,450.516388 
	C882.633484,448.564178 905.972290,446.230072 929.314880,443.956696 
	C932.502197,443.646332 934.141907,444.247864 934.476379,447.979584 
	C935.899475,463.858521 937.717712,479.701599 939.221985,495.573853 
	C939.827393,501.962311 933.363159,506.147705 927.562073,503.361694 
	C925.896057,502.561584 925.924866,501.007721 925.789124,499.528259 
	C924.786804,488.600098 923.629700,477.682373 922.879822,466.736755 
	C922.587708,462.473480 921.055176,460.602753 916.731445,461.256042 
	C914.434143,461.603210 912.111572,461.880890 909.792114,461.966034 
	C902.856384,462.220428 902.917847,462.117615 903.407776,469.857727 
	C903.942505,478.306793 904.878357,486.740662 905.953674,495.140930 
	C906.491211,499.339996 905.542969,501.678070 900.891846,501.317383 
	C900.727112,501.304565 900.559082,501.326050 900.393188,501.339294 
	C893.084229,501.922150 893.084229,501.922241 892.305908,494.457642 
z"/>
<path fill="#000000" opacity="1.000000" stroke="none" 
	d="
M299.432068,799.431641 
	C295.192505,803.700684 291.147552,807.666748 287.237915,811.761963 
	C285.499817,813.582397 284.099213,813.786682 282.249664,811.909119 
	C272.258270,801.766113 272.756683,804.873962 281.544556,795.920044 
	C285.693542,791.692627 290.405151,788.017456 295.540527,783.494324 
	C273.987396,775.898010 264.647339,763.491211 266.873199,747.369202 
	C268.826050,733.224609 283.066437,720.339478 297.882599,719.311035 
	C312.409851,718.302673 325.088196,729.084961 329.937714,746.605774 
	C332.048401,746.578186 333.047455,742.844055 335.491669,744.575684 
	C338.610474,746.785400 341.492432,749.436951 343.482208,752.714050 
	C344.582672,754.526489 342.384491,755.614319 341.302612,756.721924 
	C327.454376,770.899841 313.562531,785.035156 299.432068,799.431641 
M301.096832,770.742065 
	C313.535309,768.329163 321.193939,755.989685 316.729614,745.554749 
	C313.142670,737.170593 304.606018,732.676819 296.525024,734.918884 
	C287.628571,737.387085 280.484528,747.007935 281.628510,754.979797 
	C283.014862,764.640625 290.105682,770.658997 301.096832,770.742065 
z"/>
<path fill="#000000" opacity="1.000000" stroke="none" 
	d="
M281.014709,341.006592 
	C264.985016,328.496429 249.286346,316.137970 233.445923,303.963959 
	C229.976120,301.297272 228.772446,298.962036 232.423889,295.663849 
	C233.152512,295.005737 233.722046,294.137695 234.245651,293.292511 
	C236.129593,290.251801 238.292831,288.290283 242.455978,291.933014 
	C243.782181,279.285004 249.249985,269.883240 259.843506,263.885010 
	C265.925537,260.441284 272.542664,259.928711 279.239563,260.906647 
	C292.274689,262.810059 304.673828,275.650238 306.228516,288.356354 
	C307.737213,300.686249 301.170258,316.834167 282.800934,322.829498 
	C288.922882,327.713776 294.555725,332.458099 300.468109,336.823914 
	C303.631866,339.160095 303.877075,340.841522 301.300903,343.968811 
	C294.894165,351.746033 295.057159,351.888794 287.186584,345.853302 
	C285.204834,344.333588 283.257782,342.768738 281.014709,341.006592 
M268.508087,275.853363 
	C259.541565,278.900085 254.743774,285.389191 255.133957,293.942230 
	C255.491196,301.773834 262.374176,309.553864 270.604645,311.429199 
	C278.058350,313.127594 285.796204,309.360626 289.698914,301.980011 
	C292.651764,296.395660 292.678284,290.665955 289.090179,285.449585 
	C284.385773,278.610291 278.034546,274.547516 268.508087,275.853363 
z"/>
<path fill="#000000" opacity="1.000000" stroke="none" 
	d="
M497.012115,161.292114 
	C492.705017,160.324524 488.691956,159.797211 485.119965,157.882248 
	C471.309265,150.478241 469.916168,131.888992 482.577026,121.967537 
	C491.909943,114.654007 502.964050,113.397339 514.325195,114.122597 
	C518.617249,114.396584 522.868713,115.304031 527.026672,116.645187 
	C530.636292,117.809486 531.972412,119.656342 530.301147,123.286209 
	C529.207825,125.660736 529.344727,128.547958 527.094788,130.863708 
	C520.441956,128.510498 513.547607,126.756630 506.272675,127.314560 
	C502.415894,127.610344 498.647644,128.213821 495.223419,130.070663 
	C491.614471,132.027649 489.105072,134.975357 489.513947,139.266190 
	C489.917389,143.500549 493.178864,145.644821 496.905945,146.431534 
	C504.867706,148.112183 512.951233,149.212402 520.921387,150.858124 
	C529.055115,152.537613 536.234863,155.796707 539.156616,164.512772 
	C542.596008,174.773148 538.624817,185.683731 528.769043,191.057159 
	C513.591309,199.332184 497.818054,198.915222 481.929382,192.994888 
	C478.235657,191.618546 477.132629,189.323944 478.903351,185.608734 
	C479.959381,183.393036 480.583679,180.971558 481.327087,178.856018 
	C483.749603,178.010468 485.207672,179.496292 486.805145,180.173935 
	C495.677917,183.937698 504.799469,184.841553 514.168335,182.657578 
	C516.238220,182.175079 518.275330,181.274658 520.132935,180.222900 
	C523.082214,178.553024 524.821594,175.930649 524.590820,172.425385 
	C524.356140,168.862640 522.102112,166.743561 518.968628,165.435379 
	C514.607544,163.614746 509.895386,163.400375 505.330414,162.523788 
	C502.719879,162.022476 500.069885,161.726700 497.012115,161.292114 
z"/>
<path fill="#000000" opacity="1.000000" stroke="none" 
	d="
M794.598022,786.397583 
	C782.409607,806.840820 757.671265,810.042725 743.045166,793.374695 
	C738.961487,788.720825 739.005432,788.292542 743.677124,784.359985 
	C752.724243,776.744202 761.771790,769.128601 770.774536,761.460571 
	C772.008301,760.409851 773.510254,759.518616 774.184082,757.423462 
	C770.488037,753.976501 765.979553,753.531921 761.415100,754.858582 
	C753.042358,757.292053 746.901978,762.442444 744.841736,771.216614 
	C743.231018,778.076721 738.674316,774.192627 735.294678,774.154175 
	C731.426392,774.110291 731.423584,771.242615 731.914307,768.396118 
	C734.386414,754.056641 751.290161,740.187134 766.599121,739.912598 
	C780.768005,739.658569 794.531006,751.235046 797.722839,766.224854 
	C799.200745,773.165161 798.132019,779.805786 794.598022,786.397583 
M779.398987,768.080017 
	C772.260315,774.399597 764.452698,779.974121 757.729919,786.848877 
	C763.668030,792.054016 770.647705,792.200012 777.197876,787.588013 
	C783.397949,783.222473 786.137146,775.472473 783.783508,769.273193 
	C783.007446,767.229065 782.193359,765.863586 779.398987,768.080017 
z"/>
<path fill="#000000" opacity="1.000000" stroke="none" 
	d="
M389.546600,794.770996 
	C391.267212,808.290405 385.665894,818.294189 375.544556,825.759644 
	C365.442261,833.211060 354.372864,833.239502 343.513123,827.326111 
	C332.502289,821.330444 325.848724,812.178223 325.839111,799.239502 
	C325.834595,793.135498 328.254028,787.598755 331.322144,782.329102 
	C333.238800,779.037048 335.074707,778.448792 338.452148,780.682617 
	C348.870331,787.572937 359.498566,794.145569 370.045624,800.840942 
	C371.150482,801.542358 372.161682,802.462524 373.561340,802.464355 
	C376.399170,797.081299 374.982574,790.222778 369.827606,785.431030 
	C364.889923,780.841187 358.998962,777.945312 352.179779,778.531189 
	C345.695343,779.088196 347.755981,774.025085 346.878326,771.144226 
	C345.908447,767.960632 347.174561,766.080078 351.011139,765.474060 
	C366.890808,762.965637 386.130249,777.261597 389.546600,794.770996 
M364.984741,810.278381 
	C357.016724,805.508789 349.685181,799.632446 341.066498,795.721863 
	C338.490021,803.272400 340.353088,809.895752 345.804382,814.048523 
	C351.944916,818.726257 360.060791,819.082703 365.744507,815.197021 
	C368.478302,813.328064 368.114746,812.037231 364.984741,810.278381 
z"/>
<path fill="#000000" opacity="1.000000" stroke="none" 
	d="
M676.085815,805.337830 
	C675.132019,802.362732 676.364136,800.064575 677.663574,798.001953 
	C685.561096,785.465576 697.159424,778.922424 711.818176,779.070740 
	C725.067993,779.204651 736.243958,789.273499 740.328186,803.214050 
	C743.835510,815.185364 739.212524,828.103516 728.646118,835.857239 
	C712.012573,848.062927 690.984375,843.544495 681.747986,825.954468 
	C679.927673,822.487793 680.535583,820.692200 683.901550,818.899963 
	C694.474365,813.270325 704.930176,807.420593 715.417419,801.630981 
	C716.992493,800.761536 718.493042,799.757263 720.400146,798.587097 
	C716.055725,792.764954 710.277588,792.483826 704.541504,793.527527 
	C698.085388,794.702209 692.342041,798.154480 689.490479,804.066895 
	C687.007629,809.214966 684.282593,809.680115 679.895264,807.312622 
	C678.731873,806.684875 677.498718,806.186340 676.085815,805.337830 
M723.305420,823.769653 
	C726.736450,819.197205 728.386658,814.353882 725.889099,808.047546 
	C716.368896,813.526062 706.919922,817.795349 698.257324,823.550293 
	C703.744324,831.782471 713.711731,831.880249 723.305420,823.769653 
z"/>
<path fill="#000000" opacity="1.000000" stroke="none" 
	d="
M346.084839,230.124847 
	C335.140686,239.290726 324.475403,248.241837 313.346832,257.581757 
	C319.001160,261.916290 324.616150,261.909821 330.203308,259.654053 
	C337.044922,256.891815 341.686981,251.723526 343.759521,244.615601 
	C345.204437,239.660141 346.756012,240.241013 354.414093,241.843475 
	C358.324188,242.661652 357.071381,245.777496 356.427155,248.331924 
	C353.006653,261.895294 338.085785,274.140411 323.664917,275.251862 
	C310.945404,276.232178 298.485657,268.067963 292.729034,254.981155 
	C286.303680,240.374115 292.923126,223.273941 308.287445,214.788696 
	C321.542999,207.468048 338.611359,211.612640 347.319000,224.130020 
	C349.040497,226.604736 348.841400,228.338409 346.084839,230.124847 
M319.806580,224.396225 
	C312.383636,225.777298 306.840179,229.600891 304.751282,237.084686 
	C303.668823,240.962723 303.165558,245.160675 306.969666,248.853516 
	C315.388000,242.180679 323.528076,235.668076 331.259979,228.312668 
	C327.743134,225.481461 324.353149,224.419006 319.806580,224.396225 
z"/>
<path fill="#000000" opacity="1.000000" stroke="none" 
	d="
M203.831436,555.621338 
	C206.861725,557.342041 206.541473,560.340820 207.142426,562.795593 
	C209.750351,573.448425 212.057602,584.174622 214.607040,594.842346 
	C215.047287,596.684570 215.043335,598.875427 217.306366,600.376465 
	C222.572586,597.936035 225.026245,593.327637 225.522858,587.857178 
	C226.216873,580.211975 224.205032,573.104309 218.069107,568.109924 
	C212.432724,563.522095 218.339890,561.375732 219.695709,558.395691 
	C221.278076,554.917786 223.752808,556.002686 226.219421,557.737732 
	C236.125290,564.705627 243.258942,585.949463 235.826141,601.440552 
	C229.807144,613.984985 213.786407,621.318542 199.474274,617.689941 
	C184.554840,613.907532 174.913116,599.914734 175.752213,583.263000 
	C176.448074,569.454102 187.845245,558.062012 203.831436,555.621338 
M202.418503,603.717834 
	C204.081985,603.819580 205.637283,603.601013 205.177795,601.392090 
	C203.170303,591.741272 201.231094,582.067322 198.155914,572.621216 
	C191.416840,575.365845 187.915436,580.967041 188.358826,587.658813 
	C188.882965,595.569519 193.732834,601.395691 202.418503,603.717834 
z"/>
<path fill="#000000" opacity="1.000000" stroke="none" 
	d="
M218.397003,463.275513 
	C222.484604,455.568817 223.084427,448.056366 219.082474,440.537842 
	C217.763321,438.059540 218.438934,436.704651 220.582214,435.208435 
	C227.820679,430.155212 229.846405,430.760132 232.802429,439.186859 
	C237.868225,453.627899 232.766678,472.321289 221.050079,480.694458 
	C209.659378,488.834747 197.483398,488.503601 185.789413,481.738068 
	C174.673981,475.307312 169.916351,464.858734 171.155945,452.180511 
	C172.481644,438.621490 179.057999,428.712555 192.705231,424.527313 
	C197.762817,422.976288 202.906586,423.317291 208.040833,423.841553 
	C211.346130,424.179077 212.425049,425.980469 211.848953,429.368835 
	C209.650238,442.300415 207.659241,455.267426 205.617462,468.225403 
	C205.493301,469.013397 205.601364,469.837952 205.601364,471.410217 
	C211.248886,470.712067 215.278503,468.129608 218.397003,463.275513 
M186.657745,444.270660 
	C180.399887,455.163055 184.021881,466.985962 194.617004,468.975891 
	C196.243347,459.384705 197.916962,449.804626 199.464935,440.204315 
	C199.912155,437.430664 198.125320,437.230286 196.022461,437.740845 
	C192.325928,438.638336 189.422485,440.725098 186.657745,444.270660 
z"/>
<path fill="#000000" opacity="1.000000" stroke="none" 
	d="
M875.564392,348.140472 
	C888.826294,354.958801 894.717407,365.802490 894.290894,380.043579 
	C893.901917,393.033508 886.240173,400.940735 875.083984,406.300537 
	C871.120056,408.204987 869.279419,407.414062 867.675964,403.250549 
	C863.071533,391.294922 858.044922,379.501648 853.157959,367.655457 
	C852.791870,366.767975 852.216736,365.966736 851.584839,364.854248 
	C845.985657,368.510315 844.196716,373.848694 844.791016,379.603119 
	C845.568115,387.126953 848.849121,393.629822 855.568848,397.892639 
	C861.476379,401.640167 855.634277,404.759399 854.756042,407.936401 
	C853.760193,411.538879 850.957886,410.108398 848.669312,408.903778 
	C836.926270,402.722931 825.684143,380.917297 833.885010,363.421448 
	C840.632874,349.025330 859.212158,341.944916 875.564392,348.140472 
M879.340637,385.697876 
	C883.190186,378.385498 882.504395,371.060394 877.430603,365.297180 
	C873.385254,360.702118 867.582886,359.054626 861.897766,361.206787 
	C865.869446,370.781891 869.832031,380.335175 873.712646,389.690857 
	C876.696838,389.249542 877.739868,387.688232 879.340637,385.697876 
z"/>
<path fill="#000000" opacity="1.000000" stroke="none" 
	d="
M788.988647,308.284241 
	C789.710693,307.435974 790.231018,306.828583 791.136719,305.771271 
	C781.004272,304.188263 774.776062,297.991699 770.237915,289.899872 
	C765.446716,281.356995 766.872864,271.875702 773.442261,266.180176 
	C780.125671,260.385803 788.576172,260.483490 796.846008,266.535645 
	C802.284485,270.515686 806.275696,275.913086 810.699402,280.888275 
	C814.092834,284.704712 816.362976,284.315948 818.111572,279.538483 
	C819.583252,275.517639 818.912415,271.676666 816.478943,268.143158 
	C812.770508,262.758331 807.856079,258.768463 801.725525,256.671356 
	C797.926331,255.371735 797.841492,253.576233 799.120300,250.329590 
	C802.058777,242.868973 802.453796,242.597595 809.863342,246.195267 
	C818.343018,250.312546 825.026672,256.527710 829.874939,264.506744 
	C836.571228,275.526917 835.525635,285.465302 826.248596,294.395874 
	C817.616028,302.705933 808.343079,310.350861 799.348022,318.284088 
	C798.469543,319.058868 797.604553,319.839905 796.250427,319.360077 
	C794.306946,318.671387 788.879700,310.846466 788.988647,308.284241 
M797.057007,281.428864 
	C795.867554,280.280121 794.760681,279.027435 793.472046,278.003418 
	C790.370422,275.538635 787.053467,274.316437 783.658997,277.422394 
	C780.458740,280.350616 780.638611,283.842010 782.505432,287.389893 
	C784.415894,291.020721 787.263855,293.809753 790.996643,295.466736 
	C795.112000,297.293518 799.227783,297.731842 803.157227,294.656250 
	C805.435913,292.872742 806.004883,291.249176 803.821594,288.987396 
	C801.637939,286.725342 799.623779,284.299652 797.057007,281.428864 
z"/>
<path fill="#000000" opacity="1.000000" stroke="none" 
	d="
M225.188293,325.723999 
	C239.071945,322.349091 253.753510,328.464447 260.959198,340.369934 
	C268.143707,352.240326 266.093018,368.451721 255.978226,379.745880 
	C245.413513,391.542450 230.658905,394.101013 217.092667,386.488983 
	C203.325089,378.763947 197.607254,364.585052 202.313293,349.453613 
	C205.900238,337.920380 213.131058,329.738495 225.188293,325.723999 
M236.631439,340.529663 
	C235.645691,340.390686 234.664032,340.201813 233.673538,340.120453 
	C224.121887,339.335815 216.961472,344.578491 214.721069,353.976868 
	C212.718536,362.377441 217.733047,370.525330 227.087067,374.069702 
	C236.117188,377.491394 244.445068,374.677551 248.929108,366.689758 
	C254.719742,356.374390 250.001862,345.768097 236.631439,340.529663 
z"/>
<path fill="#000000" opacity="1.000000" stroke="none" 
	d="
M546.368896,175.236649 
	C541.415649,154.838791 550.865601,138.365677 569.539856,134.202820 
	C586.577332,130.404846 603.989563,139.183197 608.877319,154.633148 
	C612.396423,165.756943 610.948425,176.482681 603.172119,185.635468 
	C594.374756,195.989960 582.857788,198.372986 570.077087,195.751083 
	C558.614990,193.399658 550.626038,186.707977 546.368896,175.236649 
M571.304993,182.398209 
	C572.110596,182.602844 572.913086,182.820663 573.722290,183.010056 
	C580.652527,184.632187 587.885193,181.928787 591.694641,176.297791 
	C596.038818,169.876343 596.145081,159.451599 591.925476,153.637848 
	C587.832031,147.997849 580.172302,145.298401 573.327148,147.083389 
	C565.783936,149.050400 561.256592,154.566284 560.327026,162.921982 
	C559.329712,171.886932 562.533875,177.863831 571.304993,182.398209 
z"/>
<path fill="#000000" opacity="1.000000" stroke="none" 
	d="
M879.269287,519.680237 
	C891.603821,521.148132 903.484009,522.612183 915.373657,523.994446 
	C919.284485,524.449097 921.140991,526.174988 919.886719,530.269836 
	C919.644714,531.060242 919.404846,531.900513 919.421509,532.712463 
	C919.506042,536.849304 918.819214,540.268982 912.862305,539.082520 
	C916.072083,546.493774 918.067688,553.129822 916.578430,560.574829 
	C913.503906,575.944214 903.713135,583.712891 888.257019,582.113525 
	C877.670776,581.018005 867.135254,579.432190 856.548462,578.343262 
	C852.619507,577.939148 851.403748,576.359314 851.992310,572.523865 
	C853.485291,562.794495 853.399597,562.673279 863.289124,563.678650 
	C871.710388,564.534729 880.079224,566.031189 888.514648,566.588806 
	C897.486572,567.181946 902.451477,563.232178 903.632690,555.630432 
	C905.061340,546.436340 901.342346,539.559692 892.869507,537.467651 
	C886.292358,535.843628 879.447815,535.287720 872.712280,534.326172 
	C869.260742,533.833313 865.794312,533.418396 862.322388,533.102417 
	C858.538818,532.757935 857.076111,530.786377 857.756592,527.107788 
	C857.816956,526.781494 857.823730,526.445679 857.869202,526.116211 
	C859.123169,517.021912 859.121399,517.036499 868.420959,518.331238 
	C871.880737,518.812988 875.352356,519.209229 879.269287,519.680237 
z"/>
<path fill="#000000" opacity="1.000000" stroke="none" 
	d="
M823.483582,706.537231 
	C817.152832,701.622009 811.169739,696.842407 805.040710,692.257935 
	C802.102356,690.060181 801.361633,688.315369 804.054565,685.072998 
	C810.718933,677.048706 810.504089,676.961792 818.591675,683.297119 
	C829.989380,692.225586 841.483643,701.030640 852.888489,709.950012 
	C859.198364,714.884705 859.154114,714.941284 854.140686,721.403137 
	C854.038757,721.534607 853.934998,721.665100 853.839722,721.801392 
	C851.863098,724.629272 849.712463,726.850037 845.600952,723.141907 
	C844.724060,731.059753 842.498352,737.676575 837.931763,743.430176 
	C829.432800,754.138611 817.172668,756.889465 805.622742,749.739868 
	C795.001343,743.165039 785.671387,734.768372 775.779968,727.164856 
	C774.367432,726.079041 773.251953,724.693237 774.789185,722.974670 
	C777.422852,720.030273 779.122620,716.272583 782.908691,713.596985 
	C788.427490,717.800903 793.972351,722.005493 799.495300,726.238770 
	C802.929565,728.871216 806.254700,731.652344 809.763000,734.180420 
	C816.563538,739.080994 822.835510,738.968689 827.880615,734.034790 
	C834.076355,727.975586 835.137268,719.902588 830.650452,713.210876 
	C828.848267,710.522949 826.304932,708.648987 823.483582,706.537231 
z"/>
<path fill="#000000" opacity="1.000000" stroke="none" 
	d="
M651.442627,148.554092 
	C652.616821,148.883759 653.407043,149.144653 654.209473,149.360489 
	C660.716370,151.110672 662.195679,155.018860 658.588684,160.729660 
	C657.870300,161.866959 656.999146,162.394577 655.729309,162.245514 
	C654.909668,162.149292 654.104919,161.916290 653.297241,161.728622 
	C642.335632,159.181702 642.293274,159.169540 639.294495,170.288605 
	C636.567505,180.399689 633.769104,190.497482 631.365417,200.686829 
	C630.388794,204.827057 628.875305,206.206055 624.545776,204.903030 
	C613.479980,201.572662 614.694214,203.126205 617.466980,192.876755 
	C620.418396,181.967316 623.300354,171.038483 626.348633,160.156219 
	C627.293335,156.783615 627.374023,154.363953 622.991089,153.842361 
	C619.439270,153.419662 617.444641,151.635254 619.120911,147.739548 
	C620.454163,144.640976 619.698059,139.119675 625.980591,141.625549 
	C629.682678,143.102158 631.020264,141.654129 632.257385,138.029953 
	C637.412598,122.928230 655.613098,118.398674 667.885254,128.844727 
	C670.069336,130.703766 670.604553,132.404938 668.693115,134.724655 
	C667.125122,136.627579 666.238281,139.087402 664.003845,140.497284 
	C662.114868,140.712524 661.067383,139.124908 659.617615,138.437576 
	C656.805237,137.104279 653.871765,136.421585 650.914185,137.482697 
	C647.523499,138.699203 646.228333,141.808685 645.955139,144.994797 
	C645.652283,148.528519 649.376831,147.232971 651.442627,148.554092 
z"/>
<path fill="#000000" opacity="1.000000" stroke="none" 
	d="
M194.376175,544.449707 
	C186.134766,548.322205 178.235687,552.039062 169.891037,555.965576 
	C168.134918,550.815552 168.669556,546.348755 168.876862,541.960510 
	C168.979156,539.795227 171.174377,539.308594 172.791275,538.547058 
	C183.775040,533.373840 194.778503,528.242554 205.764633,523.074280 
	C207.379654,522.314575 208.936569,521.431152 211.313354,520.191284 
	C199.926926,515.738098 189.295074,511.578278 178.660751,507.424744 
	C177.886581,507.122375 177.090286,506.877167 176.311462,506.586151 
	C165.927170,502.706329 164.846313,500.629272 167.394669,489.464417 
	C168.775452,488.718018 169.996964,489.489258 171.196655,489.951050 
	C189.043427,496.820099 206.851074,503.792145 224.741013,510.546387 
	C228.056717,511.798187 228.800949,513.776978 229.495392,517.093567 
	C231.217941,525.320007 228.003860,529.382202 220.475464,532.261536 
	C211.647186,535.637939 203.283630,540.229492 194.376175,544.449707 
z"/>
<path fill="#000000" opacity="1.000000" stroke="none" 
	d="
M673.990784,194.921722 
	C673.335327,196.510910 672.789917,197.728317 672.340271,198.980118 
	C669.938904,205.665375 672.288940,209.710938 679.186890,210.809296 
	C684.627136,211.675568 686.841614,215.844269 684.671753,221.010437 
	C683.990479,222.632492 682.761047,223.084259 681.160339,223.296448 
	C672.951050,224.384628 661.835266,218.708893 657.869751,211.444153 
	C655.004089,206.194321 655.282837,200.916687 657.422913,195.566574 
	C660.635742,187.534576 663.822449,179.491516 667.122986,171.495575 
	C668.228455,168.817566 668.502014,166.783890 665.077515,165.691132 
	C662.033020,164.719650 658.890503,163.926636 661.179077,159.211960 
	C664.567993,152.230270 664.326843,152.122696 670.230896,154.408905 
	C671.139832,154.760864 672.092224,155.000824 673.056580,155.302612 
	C675.572021,152.664276 676.135620,149.260941 677.473328,146.274155 
	C678.507446,143.965179 679.710449,143.089172 682.051392,144.362061 
	C682.486328,144.598526 682.979126,144.727905 683.443787,144.910355 
	C692.427979,148.438583 692.532410,148.475708 689.329041,157.518631 
	C688.279480,160.481461 688.690979,162.259033 691.759033,163.276474 
	C693.334167,163.798828 694.836975,164.536545 696.379944,165.158569 
	C702.802917,167.748016 702.615906,167.676666 700.288818,174.042023 
	C698.844727,177.992050 697.073914,179.446869 692.970032,177.258911 
	C690.069153,175.712311 686.814026,174.830048 682.951538,173.359818 
	C679.953796,180.578384 677.049438,187.572098 673.990784,194.921722 
z"/>
<path fill="#000000" opacity="1.000000" stroke="none" 
	d="
M161.891693,389.053558 
	C164.185822,382.463928 164.193848,382.438019 170.617508,384.426727 
	C193.642975,391.555267 216.665207,398.694305 239.682510,405.849182 
	C245.682480,407.714264 245.728912,407.853546 243.822342,413.840912 
	C243.419128,415.107208 242.827850,416.338989 242.612183,417.634796 
	C241.969086,421.498444 239.846558,421.883667 236.495346,420.824860 
	C216.683899,414.565460 196.834778,408.425354 176.998856,402.243439 
	C173.667526,401.205200 170.343582,400.143036 167.007782,399.119446 
	C159.497879,396.815125 159.495728,396.822113 161.891693,389.053558 
z"/>
<path fill="#000000" opacity="1.000000" stroke="none" 
	d="
M861.036499,306.869751 
	C862.689026,310.829712 858.680481,310.845581 857.314026,313.158295 
	C862.807922,315.061890 867.653015,317.908295 871.368896,322.554077 
	C873.864990,325.674835 874.361816,327.921265 870.273621,329.952332 
	C867.770752,331.195831 865.457947,332.821899 863.342896,334.104431 
	C861.396606,333.583984 860.967346,332.195038 860.214417,331.154694 
	C853.991516,322.557098 846.528870,320.659576 837.174133,325.940765 
	C829.637207,330.195770 822.342468,334.899689 815.101135,339.649689 
	C811.788696,341.822510 809.893066,341.874908 807.689880,338.031708 
	C802.614075,329.177551 802.409058,329.311127 811.245300,323.845734 
	C823.714478,316.133331 836.181519,308.417358 848.629517,300.670959 
	C854.866333,296.789825 854.846436,296.757874 858.779480,303.155304 
	C859.477600,304.290894 860.176697,305.425842 861.036499,306.869751 
z"/>
<path fill="#000000" opacity="1.000000" stroke="none" 
	d="
M369.685730,173.823120 
	C372.712921,174.382965 378.461670,182.033188 377.999481,184.406021 
	C377.706909,185.908005 376.264832,186.308273 375.196716,187.054016 
	C366.073273,193.423660 364.298920,200.431656 369.655548,210.198105 
	C373.812103,217.776611 378.186066,225.239792 382.624451,232.657898 
	C384.399658,235.624954 384.470459,237.546005 381.046021,239.432678 
	C370.233490,245.389847 373.035248,245.923889 366.983002,235.825821 
	C359.119904,222.706528 351.603027,209.377625 343.607269,196.341263 
	C341.097260,192.248886 341.757629,190.031708 345.959900,188.361969 
	C346.572174,188.118683 347.174622,187.784698 347.691589,187.378220 
	C351.264374,184.568970 354.454926,184.031662 356.915009,189.798920 
	C359.409576,182.510529 363.579315,177.553665 369.685730,173.823120 
z"/>
<path fill="#000000" opacity="1.000000" stroke="none" 
	d="
M653.146973,852.153809 
	C658.099731,847.291687 658.753174,841.665955 656.922852,835.766235 
	C654.266052,827.202393 651.397766,818.694580 648.293030,810.283508 
	C646.905151,806.523560 647.455933,804.701660 651.473328,803.296692 
	C662.354553,799.491333 660.738464,799.500671 664.145386,809.187744 
	C669.325684,823.916992 674.226501,838.746399 679.573853,853.413757 
	C681.054382,857.474792 680.038391,859.305298 676.160400,860.212952 
	C675.517517,860.363464 674.897522,860.629883 674.283752,860.883423 
	C670.096008,862.612793 665.985840,864.153687 665.337646,855.946716 
	C661.815002,862.505432 657.699646,866.395508 652.320923,869.015991 
	C648.971375,870.647949 646.640991,870.602478 645.701233,866.390320 
	C645.056458,863.500061 643.347717,860.880859 643.419678,857.549133 
	C646.461731,855.731628 650.174133,854.945984 653.146973,852.153809 
z"/>
<path fill="#000000" opacity="1.000000" stroke="none" 
	d="
M861.289062,691.779419 
	C847.122742,684.005615 833.328308,676.326477 819.409302,668.880127 
	C815.962280,667.036072 815.487122,665.279968 817.332947,661.842712 
	C822.150452,652.871887 821.998840,652.796875 830.787231,657.645630 
	C844.609314,665.271606 858.382935,672.988342 872.298523,680.439880 
	C875.597107,682.206116 876.405029,683.949890 874.183472,686.962280 
	C873.890076,687.360046 873.679749,687.822388 873.455078,688.267090 
	C868.791138,697.499023 869.432617,696.226562 861.289062,691.779419 
z"/>
<path fill="#000000" opacity="1.000000" stroke="none" 
	d="
M430.114502,196.238892 
	C433.928131,192.686890 437.937927,191.723480 442.256348,194.124542 
	C446.127686,196.276993 447.760376,199.852844 447.235016,204.208160 
	C446.696869,208.669418 443.877747,211.321289 439.675018,212.490997 
	C435.681061,213.602554 432.361084,212.136887 430.001648,209.000610 
	C426.995819,205.005127 426.831512,200.726822 430.114502,196.238892 
z"/>
<path fill="#000000" opacity="1.000000" stroke="none" 
	d="
M597.600891,832.103027 
	C594.008484,837.950623 589.009399,839.833740 584.055969,837.524719 
	C579.875793,835.576050 577.677917,830.491760 578.949341,825.711792 
	C580.129395,821.275024 584.932007,818.165771 589.707581,818.746887 
	C595.688232,819.474548 598.869202,824.606934 597.600891,832.103027 
z"/>
<path fill="#000000" opacity="1.000000" stroke="none" 
	d="
M897.520752,697.208374 
	C897.506531,698.248901 897.536987,698.928833 897.392578,699.569458 
	C896.172852,704.980103 891.848572,708.429749 887.159607,707.769287 
	C882.892883,707.168335 879.600769,703.132263 879.674500,698.592712 
	C879.754883,693.643005 883.351257,689.395020 887.948975,688.819275 
	C892.604980,688.236267 896.227661,691.279541 897.520752,697.208374 
z"/>
</svg>